999
dxflib 3.3.4.0
  0
SECTION
  2
HEADER
  9
$ACADVER
  1
AC1015
  9
$HANDSEED
  5
FFFF
  9
$DIMADEC
 70
0
  9
$DIMASZ
 40
2.5
  9
$DIMAUNIT
 70
0
  9
$DIMAZIN
 70
2
  9
$DIMDEC
 70
4
  9
$DIMEXE
 40
1.25
  9
$DIMEXO
 40
0.625
  9
$DIMGAP
 40
0.625
  9
$DIMLUNIT
 70
2
  9
$DIMSCALE
 40
1.0
  9
$DIMTSZ
 40
0.0
  9
$DIMTXT
 40
2.5
  9
$DIMZIN
 70
8
  9
$DWGCODEPAGE
  3
ANSI_1252
  9
$INSUNITS
 70
4
  9
$LTSCALE
 40
1.0
  0
ENDSEC
  0
SECTION
  2
TABLES
  0
TABLE
  2
VPORT
  5
8
100
AcDbSymbolTable
 70
1
  0
VPORT
  5
30
100
AcDbSymbolTableRecord
100
AcDbViewportTableRecord
  2
*Active
 70
0
 10
0.0
 20
0.0
 11
1.0
 21
1.0
 12
286.3055555555554861
 22
148.5
 13
0.0
 23
0.0
 14
10.0
 24
10.0
 15
10.0
 25
10.0
 16
0.0
 26
0.0
 36
1.0
 17
0.0
 27
0.0
 37
0.0
 40
297.0
 41
1.92798353909465
 42
50.0
 43
0.0
 44
0.0
 50
0.0
 51
0.0
 71
0
 72
100
 73
1
 74
3
 75
1
 76
1
 77
0
 78
0
281
0
 65
1
110
0.0
120
0.0
130
0.0
111
1.0
121
0.0
131
0.0
112
0.0
122
1.0
132
0.0
 79
0
146
0.0
  0
ENDTAB
  0
TABLE
  2
LTYPE
  5
5
100
AcDbSymbolTable
 70
21
  0
LTYPE
  5
16
100
AcDbSymbolTableRecord
100
AcDbLinetypeTableRecord
  2
CONTINUOUS
 70
0
  3
Solid line
 72
65
 73
0
 40
0.0
  0
LTYPE
  5
31
100
AcDbSymbolTableRecord
100
AcDbLinetypeTableRecord
  2
CENTER2
 70
0
  3
Center (.5x) ___ _ ___ _ ___ _ ___ _ ___ _ ___
 72
65
 73
4
 40
28.5749999999999993
 49
19.0500000000000007
 74
0
 49
-3.1749999999999998
 74
0
 49
3.1749999999999998
 74
0
 49
-3.1749999999999998
 74
0
  0
LTYPE
  5
32
100
AcDbSymbolTableRecord
100
AcDbLinetypeTableRecord
  2
DIVIDEX2
 70
0
  3
Divide (2x) ________  .  .  ________  .  .  _
 72
65
 73
6
 40
63.5
 49
25.3999999999999986
 74
0
 49
-12.6999999999999993
 74
0
 49
0.0
 74
0
 49
-12.6999999999999993
 74
0
 49
0.0
 74
0
 49
-12.6999999999999993
 74
0
  0
LTYPE
  5
33
100
AcDbSymbolTableRecord
100
AcDbLinetypeTableRecord
  2
DOT2
 70
0
  3
Dot (.5x) .....................................
 72
65
 73
2
 40
3.1749999999999998
 49
0.0
 74
0
 49
-3.1749999999999998
 74
0
  0
LTYPE
  5
34
100
AcDbSymbolTableRecord
100
AcDbLinetypeTableRecord
  2
DASHDOT2
 70
0
  3
Dash dot (.5x) _._._._._._._._._._._._._._._.
 72
65
 73
4
 40
12.6999999999999993
 49
6.3499999999999996
 74
0
 49
-3.1749999999999998
 74
0
 49
0.0
 74
0
 49
-3.1749999999999998
 74
0
  0
LTYPE
  5
35
100
AcDbSymbolTableRecord
100
AcDbLinetypeTableRecord
  2
DIVIDE
 70
0
  3
Divide ____ . . ____ . . ____ . . ____ . . ____
 72
65
 73
6
 40
31.75
 49
12.6999999999999993
 74
0
 49
-6.3499999999999996
 74
0
 49
0.0
 74
0
 49
-6.3499999999999996
 74
0
 49
0.0
 74
0
 49
-6.3499999999999996
 74
0
  0
LTYPE
  5
36
100
AcDbSymbolTableRecord
100
AcDbLinetypeTableRecord
  2
DASHDOT
 70
0
  3
Dash dot __ . __ . __ . __ . __ . __ . __ . __
 72
65
 73
4
 40
25.3999999999999986
 49
12.6999999999999993
 74
0
 49
-6.3499999999999996
 74
0
 49
0.0
 74
0
 49
-6.3499999999999996
 74
0
  0
LTYPE
  5
37
100
AcDbSymbolTableRecord
100
AcDbLinetypeTableRecord
  2
BORDER
 70
0
  3
Border __ __ . __ __ . __ __ . __ __ . __ __ .
 72
65
 73
6
 40
44.4500000000000028
 49
12.6999999999999993
 74
0
 49
-6.3499999999999996
 74
0
 49
12.6999999999999993
 74
0
 49
-6.3499999999999996
 74
0
 49
0.0
 74
0
 49
-6.3499999999999996
 74
0
  0
LTYPE
  5
38
100
AcDbSymbolTableRecord
100
AcDbLinetypeTableRecord
  2
DASHDOTX2
 70
0
  3
Dash dot (2x) ____  .  ____  .  ____  .  ___
 72
65
 73
4
 40
50.7999999999999972
 49
25.3999999999999986
 74
0
 49
-12.6999999999999993
 74
0
 49
0.0
 74
0
 49
-12.6999999999999993
 74
0
  0
LTYPE
  5
39
100
AcDbSymbolTableRecord
100
AcDbLinetypeTableRecord
  2
CENTERX2
 70
0
  3
Center (2x) ________  __  ________  __  _____
 72
65
 73
4
 40
101.5999999999999943
 49
63.5
 74
0
 49
-12.6999999999999993
 74
0
 49
12.6999999999999993
 74
0
 49
-12.6999999999999993
 74
0
  0
LTYPE
  5
3A
100
AcDbSymbolTableRecord
100
AcDbLinetypeTableRecord
  2
BORDER2
 70
0
  3
Border (.5x) __.__.__.__.__.__.__.__.__.__.__.
 72
65
 73
6
 40
22.2250000000000014
 49
6.3499999999999996
 74
0
 49
-3.1749999999999998
 74
0
 49
6.3499999999999996
 74
0
 49
-3.1749999999999998
 74
0
 49
0.0
 74
0
 49
-3.1749999999999998
 74
0
  0
LTYPE
  5
3B
100
AcDbSymbolTableRecord
100
AcDbLinetypeTableRecord
  2
BORDERX2
 70
0
  3
Border (2x) ____  ____  .  ____  ____  .  ___
 72
65
 73
6
 40
88.9000000000000057
 49
25.3999999999999986
 74
0
 49
-12.6999999999999993
 74
0
 49
25.3999999999999986
 74
0
 49
-12.6999999999999993
 74
0
 49
0.0
 74
0
 49
-12.6999999999999993
 74
0
  0
LTYPE
  5
14
100
AcDbSymbolTableRecord
100
AcDbLinetypeTableRecord
  2
BYBLOCK
 70
0
  3

 72
65
 73
0
 40
0.0
  0
LTYPE
  5
15
100
AcDbSymbolTableRecord
100
AcDbLinetypeTableRecord
  2
BYLAYER
 70
0
  3

 72
65
 73
0
 40
0.0
  0
LTYPE
  5
3C
100
AcDbSymbolTableRecord
100
AcDbLinetypeTableRecord
  2
DASHED2
 70
0
  3
Dashed (.5x) _ _ _ _ _ _ _ _ _ _ _ _ _ _ _ _ _
 72
65
 73
2
 40
9.5250000000000004
 49
6.3499999999999996
 74
0
 49
-3.1749999999999998
 74
0
  0
LTYPE
  5
3D
100
AcDbSymbolTableRecord
100
AcDbLinetypeTableRecord
  2
CENTER
 70
0
  3
Center ____ _ ____ _ ____ _ ____ _ ____ _ ____
 72
65
 73
4
 40
50.7999999999999972
 49
31.75
 74
0
 49
-6.3499999999999996
 74
0
 49
6.3499999999999996
 74
0
 49
-6.3499999999999996
 74
0
  0
LTYPE
  5
3E
100
AcDbSymbolTableRecord
100
AcDbLinetypeTableRecord
  2
DIVIDE2
 70
0
  3
Divide (.5x) __..__..__..__..__..__..__..__.._
 72
65
 73
6
 40
15.875
 49
6.3499999999999996
 74
0
 49
-3.1749999999999998
 74
0
 49
0.0
 74
0
 49
-3.1749999999999998
 74
0
 49
0.0
 74
0
 49
-3.1749999999999998
 74
0
  0
LTYPE
  5
3F
100
AcDbSymbolTableRecord
100
AcDbLinetypeTableRecord
  2
DASHED
 70
0
  3
Dashed __ __ __ __ __ __ __ __ __ __ __ __ __ _
 72
65
 73
2
 40
19.0500000000000007
 49
12.6999999999999993
 74
0
 49
-6.3499999999999996
 74
0
  0
LTYPE
  5
40
100
AcDbSymbolTableRecord
100
AcDbLinetypeTableRecord
  2
DOTX2
 70
0
  3
Dot (2x) .  .  .  .  .  .  .  .  .  .  .  .  .
 72
65
 73
2
 40
12.6999999999999993
 49
0.0
 74
0
 49
-12.6999999999999993
 74
0
  0
LTYPE
  5
41
100
AcDbSymbolTableRecord
100
AcDbLinetypeTableRecord
  2
DASHEDX2
 70
0
  3
Dashed (2x) ____  ____  ____  ____  ____  ___
 72
65
 73
2
 40
38.1000000000000014
 49
25.3999999999999986
 74
0
 49
-12.6999999999999993
 74
0
  0
LTYPE
  5
42
100
AcDbSymbolTableRecord
100
AcDbLinetypeTableRecord
  2
DOT
 70
0
  3
Dot . . . . . . . . . . . . . . . . . . . . . .
 72
65
 73
2
 40
6.3499999999999996
 49
0.0
 74
0
 49
-6.3499999999999996
 74
0
  0
ENDTAB
  0
TABLE
  2
LAYER
  5
2
100
AcDbSymbolTable
 70
6
  0
LAYER
  5
43
100
AcDbSymbolTableRecord
100
AcDbLayerTableRecord
  2
Title
 70
0
 62
7
420
16777215
  6
CONTINUOUS
370
25
390
F
  0
LAYER
  5
44
100
AcDbSymbolTableRecord
100
AcDbLayerTableRecord
  2
Title block 2 (handy)
 70
0
 62
7
420
16777215
  6
CONTINUOUS
370
25
390
F
  0
LAYER
  5
45
100
AcDbSymbolTableRecord
100
AcDbLayerTableRecord
  2
COTAS
 70
0
 62
1
420
16711680
  6
CONTINUOUS
370
25
390
F
  0
LAYER
  5
46
100
AcDbSymbolTableRecord
100
AcDbLayerTableRecord
  2
Revision
 70
0
 62
7
420
16777215
  6
CONTINUOUS
370
25
390
F
  0
LAYER
  5
47
100
AcDbSymbolTableRecord
100
AcDbLayerTableRecord
  2
Border
 70
0
 62
7
420
16777215
  6
CONTINUOUS
370
25
390
F
  0
LAYER
  5
10
100
AcDbSymbolTableRecord
100
AcDbLayerTableRecord
  2
0
 70
0
 62
7
420
16777215
  6
CONTINUOUS
370
25
390
F
  0
ENDTAB
  0
TABLE
  2
STYLE
  5
3
100
AcDbSymbolTable
 70
38
  0
STYLE
  5
48
100
AcDbSymbolTableRecord
100
AcDbTextStyleTableRecord
  2
Standard
 70
0
 40
0.0
 41
1.0
 50
0.0
 71
0
 42
2.5
  3

  4

1001
ACAD
1000
txt
1071
0
  0
STYLE
  5
49
100
AcDbSymbolTableRecord
100
AcDbTextStyleTableRecord
  2
textstyle0
 70
0
 40
0.0
 41
1.0
 50
0.0
 71
0
 42
1.8
  3

  4

1001
ACAD
1000
Arial
1071
0
  0
STYLE
  5
4A
100
AcDbSymbolTableRecord
100
AcDbTextStyleTableRecord
  2
textstyle1
 70
0
 40
0.0
 41
1.0
 50
0.0
 71
0
 42
1.8
  3

  4

1001
ACAD
1000
Arial
1071
0
  0
STYLE
  5
4B
100
AcDbSymbolTableRecord
100
AcDbTextStyleTableRecord
  2
textstyle2
 70
0
 40
0.0
 41
1.0
 50
0.0
 71
0
 42
1.8
  3

  4

1001
ACAD
1000
Arial
1071
0
  0
STYLE
  5
4C
100
AcDbSymbolTableRecord
100
AcDbTextStyleTableRecord
  2
textstyle3
 70
0
 40
0.0
 41
1.0
 50
0.0
 71
0
 42
1.8
  3

  4

1001
ACAD
1000
Arial
1071
0
  0
STYLE
  5
4D
100
AcDbSymbolTableRecord
100
AcDbTextStyleTableRecord
  2
textstyle4
 70
0
 40
0.0
 41
1.0
 50
0.0
 71
0
 42
1.8
  3

  4

1001
ACAD
1000
Arial
1071
0
  0
STYLE
  5
4E
100
AcDbSymbolTableRecord
100
AcDbTextStyleTableRecord
  2
textstyle5
 70
0
 40
0.0
 41
1.0
 50
0.0
 71
0
 42
1.8
  3

  4

1001
ACAD
1000
Arial
1071
0
  0
STYLE
  5
4F
100
AcDbSymbolTableRecord
100
AcDbTextStyleTableRecord
  2
textstyle6
 70
0
 40
0.0
 41
1.0
 50
0.0
 71
0
 42
1.8
  3

  4

1001
ACAD
1000
Arial
1071
0
  0
STYLE
  5
50
100
AcDbSymbolTableRecord
100
AcDbTextStyleTableRecord
  2
textstyle7
 70
0
 40
0.0
 41
1.0
 50
0.0
 71
0
 42
1.8
  3

  4

1001
ACAD
1000
Arial
1071
0
  0
STYLE
  5
51
100
AcDbSymbolTableRecord
100
AcDbTextStyleTableRecord
  2
textstyle8
 70
0
 40
0.0
 41
1.0
 50
0.0
 71
0
 42
1.8
  3

  4

1001
ACAD
1000
Arial
1071
0
  0
STYLE
  5
52
100
AcDbSymbolTableRecord
100
AcDbTextStyleTableRecord
  2
textstyle9
 70
0
 40
0.0
 41
1.0
 50
0.0
 71
0
 42
1.8
  3

  4

1001
ACAD
1000
Arial
1071
0
  0
STYLE
  5
53
100
AcDbSymbolTableRecord
100
AcDbTextStyleTableRecord
  2
textstyle10
 70
0
 40
0.0
 41
1.0
 50
0.0
 71
0
 42
1.8
  3

  4

1001
ACAD
1000
Arial
1071
0
  0
STYLE
  5
54
100
AcDbSymbolTableRecord
100
AcDbTextStyleTableRecord
  2
textstyle11
 70
0
 40
0.0
 41
1.0
 50
0.0
 71
0
 42
1.8
  3

  4

1001
ACAD
1000
Arial
1071
0
  0
STYLE
  5
55
100
AcDbSymbolTableRecord
100
AcDbTextStyleTableRecord
  2
textstyle12
 70
0
 40
0.0
 41
1.0
 50
0.0
 71
0
 42
1.8
  3

  4

1001
ACAD
1000
Arial
1071
0
  0
STYLE
  5
56
100
AcDbSymbolTableRecord
100
AcDbTextStyleTableRecord
  2
textstyle13
 70
0
 40
0.0
 41
1.0
 50
0.0
 71
0
 42
1.8
  3

  4

1001
ACAD
1000
Arial
1071
0
  0
STYLE
  5
57
100
AcDbSymbolTableRecord
100
AcDbTextStyleTableRecord
  2
textstyle14
 70
0
 40
0.0
 41
1.0
 50
0.0
 71
0
 42
1.8
  3

  4

1001
ACAD
1000
Arial
1071
0
  0
STYLE
  5
58
100
AcDbSymbolTableRecord
100
AcDbTextStyleTableRecord
  2
textstyle15
 70
0
 40
0.0
 41
1.0
 50
0.0
 71
0
 42
1.8
  3

  4

1001
ACAD
1000
Arial
1071
0
  0
STYLE
  5
59
100
AcDbSymbolTableRecord
100
AcDbTextStyleTableRecord
  2
textstyle16
 70
0
 40
0.0
 41
1.0
 50
0.0
 71
0
 42
1.8
  3

  4

1001
ACAD
1000
Arial
1071
0
  0
STYLE
  5
5A
100
AcDbSymbolTableRecord
100
AcDbTextStyleTableRecord
  2
textstyle17
 70
0
 40
0.0
 41
1.0
 50
0.0
 71
0
 42
1.8
  3

  4

1001
ACAD
1000
Arial
1071
0
  0
STYLE
  5
5B
100
AcDbSymbolTableRecord
100
AcDbTextStyleTableRecord
  2
textstyle18
 70
0
 40
0.0
 41
1.0
 50
0.0
 71
0
 42
4.0
  3

  4

1001
ACAD
1000
Arial
1071
0
  0
STYLE
  5
5C
100
AcDbSymbolTableRecord
100
AcDbTextStyleTableRecord
  2
textstyle19
 70
0
 40
0.0
 41
1.0
 50
0.0
 71
0
 42
4.0
  3

  4

1001
ACAD
1000
Arial
1071
0
  0
STYLE
  5
5D
100
AcDbSymbolTableRecord
100
AcDbTextStyleTableRecord
  2
textstyle20
 70
0
 40
0.0
 41
1.0
 50
0.0
 71
0
 42
4.0
  3

  4

1001
ACAD
1000
Arial
1071
0
  0
STYLE
  5
5E
100
AcDbSymbolTableRecord
100
AcDbTextStyleTableRecord
  2
textstyle21
 70
0
 40
0.0
 41
1.0
 50
0.0
 71
0
 42
4.0
  3

  4

1001
ACAD
1000
Arial
1071
0
  0
STYLE
  5
5F
100
AcDbSymbolTableRecord
100
AcDbTextStyleTableRecord
  2
textstyle22
 70
0
 40
0.0
 41
1.0
 50
0.0
 71
0
 42
4.0
  3

  4

1001
ACAD
1000
Arial
1071
0
  0
STYLE
  5
60
100
AcDbSymbolTableRecord
100
AcDbTextStyleTableRecord
  2
textstyle23
 70
0
 40
0.0
 41
1.0
 50
0.0
 71
0
 42
4.0
  3

  4

1001
ACAD
1000
Arial
1071
0
  0
STYLE
  5
61
100
AcDbSymbolTableRecord
100
AcDbTextStyleTableRecord
  2
textstyle24
 70
0
 40
0.0
 41
1.0
 50
0.0
 71
0
 42
4.0
  3

  4

1001
ACAD
1000
Arial
1071
0
  0
STYLE
  5
62
100
AcDbSymbolTableRecord
100
AcDbTextStyleTableRecord
  2
textstyle25
 70
0
 40
0.0
 41
1.0
 50
0.0
 71
0
 42
4.0
  3

  4

1001
ACAD
1000
Arial
1071
0
  0
STYLE
  5
63
100
AcDbSymbolTableRecord
100
AcDbTextStyleTableRecord
  2
textstyle26
 70
0
 40
0.0
 41
1.0
 50
0.0
 71
0
 42
4.0
  3

  4

1001
ACAD
1000
Arial
1071
0
  0
STYLE
  5
64
100
AcDbSymbolTableRecord
100
AcDbTextStyleTableRecord
  2
textstyle27
 70
0
 40
0.0
 41
1.0
 50
0.0
 71
0
 42
4.0
  3

  4

1001
ACAD
1000
Arial
1071
0
  0
STYLE
  5
65
100
AcDbSymbolTableRecord
100
AcDbTextStyleTableRecord
  2
textstyle28
 70
0
 40
0.0
 41
1.0
 50
0.0
 71
0
 42
4.0
  3

  4

1001
ACAD
1000
Arial
1071
0
  0
STYLE
  5
66
100
AcDbSymbolTableRecord
100
AcDbTextStyleTableRecord
  2
textstyle29
 70
0
 40
0.0
 41
1.0
 50
0.0
 71
0
 42
4.0
  3

  4

1001
ACAD
1000
Arial
1071
0
  0
STYLE
  5
67
100
AcDbSymbolTableRecord
100
AcDbTextStyleTableRecord
  2
textstyle30
 70
0
 40
0.0
 41
1.0
 50
0.0
 71
0
 42
4.0
  3

  4

1001
ACAD
1000
Arial
1071
0
  0
STYLE
  5
68
100
AcDbSymbolTableRecord
100
AcDbTextStyleTableRecord
  2
textstyle31
 70
0
 40
0.0
 41
1.0
 50
0.0
 71
0
 42
4.0
  3

  4

1001
ACAD
1000
Arial
1071
0
  0
STYLE
  5
69
100
AcDbSymbolTableRecord
100
AcDbTextStyleTableRecord
  2
textstyle32
 70
0
 40
0.0
 41
1.0
 50
0.0
 71
0
 42
4.0
  3

  4

1001
ACAD
1000
Arial
1071
0
  0
STYLE
  5
6A
100
AcDbSymbolTableRecord
100
AcDbTextStyleTableRecord
  2
textstyle33
 70
0
 40
0.0
 41
1.0
 50
0.0
 71
0
 42
4.0
  3

  4

1001
ACAD
1000
Arial
1071
0
  0
STYLE
  5
6B
100
AcDbSymbolTableRecord
100
AcDbTextStyleTableRecord
  2
textstyle34
 70
0
 40
0.0
 41
1.0
 50
0.0
 71
0
 42
4.0
  3

  4

1001
ACAD
1000
Arial
1071
0
  0
STYLE
  5
6C
100
AcDbSymbolTableRecord
100
AcDbTextStyleTableRecord
  2
textstyle35
 70
0
 40
0.0
 41
1.0
 50
0.0
 71
0
 42
4.0
  3

  4

1001
ACAD
1000
Arial
1071
0
  0
STYLE
  5
6D
100
AcDbSymbolTableRecord
100
AcDbTextStyleTableRecord
  2
textstyle36
 70
0
 40
0.0
 41
1.0
 50
0.0
 71
0
 42
1.0
  3

  4

1001
ACAD
1000
ISO8859-11
1071
33554432
  0
ENDTAB
  0
TABLE
  2
VIEW
  5
6
100
AcDbSymbolTable
 70
0
  0
ENDTAB
  0
TABLE
  2
UCS
  5
7
100
AcDbSymbolTable
 70
0
  0
ENDTAB
  0
TABLE
  2
APPID
  5
9
100
AcDbSymbolTable
 70
1
  0
APPID
  5
12
100
AcDbSymbolTableRecord
100
AcDbRegAppTableRecord
  2
ACAD
 70
0
  0
APPID
  5
6E
100
AcDbSymbolTableRecord
100
AcDbRegAppTableRecord
  2
QCAD
 70
0
  0
ENDTAB
  0
TABLE
  2
DIMSTYLE
  5
A
100
AcDbSymbolTable
 70
1
100
AcDbDimStyleTable
 71
0
  0
DIMSTYLE
105
27
100
AcDbSymbolTableRecord
100
AcDbDimStyleTableRecord
  2
Standard
 41
2.5
 42
0.625
 43
3.75
 44
1.25
 70
0
 73
0
 74
0
 77
1
 78
8
140
2.5
141
2.5
143
0.03937007874016
147
0.625
171
3
172
1
271
2
272
2
274
3
278
44
283
0
284
8
340
48
  0
ENDTAB
  0
TABLE
  2
BLOCK_RECORD
  5
1
100
AcDbSymbolTable
 70
1
  0
BLOCK_RECORD
  5
1F
100
AcDbSymbolTableRecord
100
AcDbBlockTableRecord
  2
*Model_Space
340
22
  0
BLOCK_RECORD
  5
1B
100
AcDbSymbolTableRecord
100
AcDbBlockTableRecord
  2
*Paper_Space
340
1E
  0
BLOCK_RECORD
  5
23
100
AcDbSymbolTableRecord
100
AcDbBlockTableRecord
  2
*Paper_Space0
340
26
  0
BLOCK_RECORD
  5
6F
100
AcDbSymbolTableRecord
100
AcDbBlockTableRecord
  2
Title
340
0
  0
BLOCK_RECORD
  5
70
100
AcDbSymbolTableRecord
100
AcDbBlockTableRecord
  2
Title block 2 (handy)
340
0
  0
BLOCK_RECORD
  5
71
100
AcDbSymbolTableRecord
100
AcDbBlockTableRecord
  2
Revision
340
0
  0
BLOCK_RECORD
  5
72
100
AcDbSymbolTableRecord
100
AcDbBlockTableRecord
  2
iso_en_a4_metric_landscape_aec
340
0
  0
ENDTAB
  0
ENDSEC
  0
SECTION
  2
BLOCKS
  0
BLOCK
  5
20
100
AcDbEntity
  8
0
100
AcDbBlockBegin
  2
*Model_Space
 70
0
 10
0.0
 20
0.0
 30
0.0
  3
*Model_Space
  1

  0
ENDBLK
  5
21
100
AcDbEntity
  8
0
100
AcDbBlockEnd
  0
BLOCK
  5
1C
100
AcDbEntity
 67
1
  8
0
100
AcDbBlockBegin
  2
*Paper_Space
 70
0
 10
0.0
 20
0.0
 30
0.0
  3
*Paper_Space
  1

  0
ENDBLK
  5
1D
100
AcDbEntity
 67
1
  8
0
100
AcDbBlockEnd
  0
BLOCK
  5
24
100
AcDbEntity
  8
0
100
AcDbBlockBegin
  2
*Paper_Space0
 70
0
 10
0.0
 20
0.0
 30
0.0
  3
*Paper_Space0
  1

  0
ENDBLK
  5
25
100
AcDbEntity
  8
0
100
AcDbBlockEnd
  0
BLOCK
  5
73
100
AcDbEntity
  8
0
100
AcDbBlockBegin
  2
Title
 70
0
 10
0.0
 20
0.0
 30
0.0
  3
Title
  1

  0
MTEXT
  5
74
100
AcDbEntity
100
AcDbMText
  8
Title
 62
256
370
-1
  6
BYLAYER
 10
-36.1922564199297199
 20
32.9999999999988987
 30
0.0
 40
1.8
 41
0.0
 71
5
 72
1
  1
Article No./Reference
  7
textstyle0
 50
0.0
 73
1
 44
1.0
  0
MTEXT
  5
75
100
AcDbEntity
100
AcDbMText
  8
Title
 62
256
370
-1
  6
BYLAYER
 10
-161.238768807772999
 20
27.4999999999987352
 30
0.0
 40
1.8
 41
0.0
 71
5
 72
1
  1
Designed by
  7
textstyle1
 50
0.0
 73
1
 44
1.0
  0
MTEXT
  5
76
100
AcDbEntity
100
AcDbMText
  8
Title
 62
256
370
-1
  6
BYLAYER
 10
-129.8791418766523975
 20
27.4999999999987246
 30
0.0
 40
1.8
 41
0.0
 71
5
 72
1
  1
Checked by
  7
textstyle2
 50
0.0
 73
1
 44
1.0
  0
MTEXT
  5
77
100
AcDbEntity
100
AcDbMText
  8
Title
 62
256
370
-1
  6
BYLAYER
 10
-96.167542925697802
 20
27.4999999999987104
 30
0.0
 40
1.8
 41
0.0
 71
5
 72
1
  1
Approved by - date
  7
textstyle3
 50
0.0
 73
1
 44
1.0
  0
MTEXT
  5
78
100
AcDbEntity
100
AcDbMText
  8
Title
 62
256
370
-1
  6
BYLAYER
 10
-66.7678926777721955
 20
27.4999999999986215
 30
0.0
 40
1.8
 41
0.0
 71
5
 72
1
  1
Filename
  7
textstyle4
 50
0.0
 73
1
 44
1.0
  0
MTEXT
  5
79
100
AcDbEntity
100
AcDbMText
  8
Title
 62
256
370
-1
  6
BYLAYER
 10
-45.7961421675853941
 20
27.4999999999985789
 30
0.0
 40
1.8
 41
0.0
 71
5
 72
1
  1
Date
  7
textstyle5
 50
0.0
 73
1
 44
1.0
  0
MTEXT
  5
7A
100
AcDbEntity
100
AcDbMText
  8
Title
 62
256
370
-1
  6
BYLAYER
 10
-15.0245082414232893
 20
27.4999999999984972
 30
0.0
 40
1.8
 41
0.0
 71
5
 72
1
  1
Scale
  7
textstyle6
 50
0.0
 73
1
 44
1.0
  0
MTEXT
  5
7B
100
AcDbEntity
100
AcDbMText
  8
Title
 62
256
370
-1
  6
BYLAYER
 10
-29.3323380287471309
 20
7.4999999999998002
 30
0.0
 40
1.8
 41
0.0
 71
5
 72
1
  1
Edition
  7
textstyle7
 50
0.0
 73
1
 44
1.0
  0
MTEXT
  5
7C
100
AcDbEntity
100
AcDbMText
  8
Title
 62
256
370
-1
  6
BYLAYER
 10
-14.2405175681453215
 20
7.4999999999999094
 30
0.0
 40
1.8
 41
0.0
 71
5
 72
1
  1
Sheet
  7
textstyle8
 50
0.0
 73
1
 44
1.0
  0
MTEXT
  5
7D
100
AcDbEntity
100
AcDbMText
  8
Title
 62
256
370
-1
  6
BYLAYER
 10
-155.7508340948268994
 20
14.9999999999987974
 30
0.0
 40
1.8
 41
0.0
 71
5
 72
1
  1
Logo etc
  7
textstyle9
 50
0.0
 73
1
 44
1.0
  0
LINE
  5
7E
100
AcDbEntity
100
AcDbLine
  8
Title
 62
256
370
-1
  6
BYLAYER
 10
0.0
 20
0.0
 30
0.0
 11
0.0
 21
10.0
 31
0.0
  0
LINE
  5
7F
100
AcDbEntity
100
AcDbLine
  8
Title
 62
256
370
-1
  6
BYLAYER
 10
-170.0
 20
0.0000000000003695
 30
0.0
 11
0.0
 21
0.0
 31
0.0
  0
LINE
  5
80
100
AcDbEntity
100
AcDbLine
  8
Title
 62
256
370
-1
  6
BYLAYER
 10
0.0
 20
0.0
 30
0.0
 11
0.0
 21
35.9999999999988987
 31
0.0
  0
LINE
  5
81
100
AcDbEntity
100
AcDbLine
  8
Title
 62
256
370
-1
  6
BYLAYER
 10
-95.0
 20
9.9999999999992397
 30
0.0
 11
0.0
 21
10.0
 31
0.0
  0
LINE
  5
82
100
AcDbEntity
100
AcDbLine
  8
Title
 62
256
370
-1
  6
BYLAYER
 10
-170.0
 20
19.9999999999990017
 30
0.0
 11
0.0
 21
19.9999999999986606
 31
0.0
  0
LINE
  5
83
100
AcDbEntity
100
AcDbLine
  8
Title
 62
256
370
-1
  6
BYLAYER
 10
-170.0
 20
29.9999999999987317
 30
0.0
 11
0.0
 21
29.9999999999984688
 31
0.0
  0
LINE
  5
84
100
AcDbEntity
100
AcDbLine
  8
Title
 62
256
370
-1
  6
BYLAYER
 10
-170.0
 20
0.0000000000003695
 30
0.0
 11
-170.0
 21
29.9999999999987317
 31
0.0
  0
LINE
  5
85
100
AcDbEntity
100
AcDbLine
  8
Title
 62
256
370
-1
  6
BYLAYER
 10
-95.0
 20
-0.0000000000012506
 30
0.0
 11
-95.0
 21
19.9999999999987601
 31
0.0
  0
LINE
  5
86
100
AcDbEntity
100
AcDbLine
  8
Title
 62
256
370
-1
  6
BYLAYER
 10
-20.0
 20
-0.0000000000022453
 30
0.0
 11
-20.0
 21
9.9999999999991971
 31
0.0
  0
LINE
  5
87
100
AcDbEntity
100
AcDbLine
  8
Title
 62
256
370
-1
  6
BYLAYER
 10
-35.0
 20
-0.0000000000026859
 30
0.0
 11
-35.0
 21
9.9999999999992397
 31
0.0
  0
LINE
  5
88
100
AcDbEntity
100
AcDbLine
  8
Title
 62
256
370
-1
  6
BYLAYER
 10
-19.9999999999999396
 20
19.9999999999984901
 30
0.0
 11
-20.0
 21
29.9999999999985292
 31
0.0
  0
LINE
  5
89
100
AcDbEntity
100
AcDbLine
  8
Title
 62
256
370
-1
  6
BYLAYER
 10
-50.0
 20
19.9999999999986002
 30
0.0
 11
-50.0
 21
29.9999999999993108
 31
0.0
  0
LINE
  5
8A
100
AcDbEntity
100
AcDbLine
  8
Title
 62
256
370
-1
  6
BYLAYER
 10
-75.0
 20
19.9999999999990195
 30
0.0
 11
-74.9999999999999005
 21
29.9999999999982592
 31
0.0
  0
LINE
  5
8B
100
AcDbEntity
100
AcDbLine
  8
Title
 62
256
370
-1
  6
BYLAYER
 10
-113.0
 20
19.99999999999865
 30
0.0
 11
-112.9999999999999005
 21
29.9999999999985612
 31
0.0
  0
LINE
  5
8C
100
AcDbEntity
100
AcDbLine
  8
Title
 62
256
370
-1
  6
BYLAYER
 10
-138.0
 20
19.9999999999990692
 30
0.0
 11
-137.9999999999998863
 21
29.9999999999986393
 31
0.0
  0
LINE
  5
8D
100
AcDbEntity
100
AcDbLine
  8
Title
 62
256
370
-1
  6
BYLAYER
 10
-170.0
 20
35.9999999999988134
 30
0.0
 11
0.0
 21
35.9999999999988987
 31
0.0
  0
LINE
  5
8E
100
AcDbEntity
100
AcDbLine
  8
Title
 62
256
370
-1
  6
BYLAYER
 10
-155.0
 20
29.9999999999989697
 30
0.0
 11
-155.0
 21
35.9999999999988702
 31
0.0
  0
LINE
  5
8F
100
AcDbEntity
100
AcDbLine
  8
Title
 62
256
370
-1
  6
BYLAYER
 10
-170.0
 20
29.9999999999987317
 30
0.0
 11
-170.0
 21
35.9999999999988134
 31
0.0
  0
LINE
  5
90
100
AcDbEntity
100
AcDbLine
  8
Title
 62
256
370
-1
  6
BYLAYER
 10
-137.9999999999998863
 20
29.9999999999986393
 30
0.0
 11
-138.0
 21
35.9999999999993818
 31
0.0
  0
LINE
  5
91
100
AcDbEntity
100
AcDbLine
  8
Title
 62
256
370
-1
  6
BYLAYER
 10
-50.0
 20
29.9999999999993108
 30
0.0
 11
-50.0
 21
35.9999999999986429
 31
0.0
  0
MTEXT
  5
92
100
AcDbEntity
100
AcDbMText
  8
Title
 62
256
370
-1
  6
BYLAYER
 10
-148.6949180353246902
 20
32.9999999999988418
 30
0.0
 40
1.8
 41
0.0
 71
5
 72
1
  1
Quantitiy
  7
textstyle10
 50
0.0
 73
1
 44
1.0
  0
MTEXT
  5
93
100
AcDbEntity
100
AcDbMText
  8
Title
 62
256
370
-1
  6
BYLAYER
 10
-164.0480687203524894
 20
32.9999999999987494
 30
0.0
 40
1.8
 41
0.0
 71
5
 72
1
  1
Item ref
  7
textstyle11
 50
0.0
 73
1
 44
1.0
  0
MTEXT
  5
94
100
AcDbEntity
100
AcDbMText
  8
Title
 62
256
370
-1
  6
BYLAYER
 10
-109.9853785422227048
 20
32.9999999999988347
 30
0.0
 40
1.8
 41
0.0
 71
5
 72
1
  1
Title/Name, destination, material, dimension etc
  7
textstyle12
 50
0.0
 73
1
 44
1.0
  0
ENDBLK
  5
95
100
AcDbEntity
  8
0
100
AcDbBlockEnd
  0
BLOCK
  5
96
100
AcDbEntity
  8
0
100
AcDbBlockBegin
  2
Title block 2 (handy)
 70
0
 10
0.0
 20
0.0
 30
0.0
  3
Title block 2 (handy)
  1

  0
ENDBLK
  5
97
100
AcDbEntity
  8
0
100
AcDbBlockEnd
  0
BLOCK
  5
98
100
AcDbEntity
  8
0
100
AcDbBlockBegin
  2
Revision
 70
0
 10
0.0
 20
0.0
 30
0.0
  3
Revision
  1

  0
MTEXT
  5
99
100
AcDbEntity
100
AcDbMText
  8
Revision
 62
256
370
-1
  6
BYLAYER
 10
-146.5429576580046955
 20
-3.0000000000004712
 30
0.0
 40
1.8
 41
0.0
 71
5
 72
1
  1
Revision note
  7
textstyle13
 50
0.0
 73
1
 44
1.0
  0
MTEXT
  5
9A
100
AcDbEntity
100
AcDbMText
  8
Revision
 62
256
370
-1
  6
BYLAYER
 10
-43.5503893338860735
 20
-2.9999999999999627
 30
0.0
 40
1.8
 41
0.0
 71
5
 72
1
  1
Date
  7
textstyle14
 50
0.0
 73
1
 44
1.0
  0
MTEXT
  5
9B
100
AcDbEntity
100
AcDbMText
  8
Revision
 62
256
370
-1
  6
BYLAYER
 10
-21.4999999999998899
 20
-2.9999999999999445
 30
0.0
 40
1.8
 41
0.0
 71
5
 72
1
  1
Signature
  7
textstyle15
 50
0.0
 73
1
 44
1.0
  0
MTEXT
  5
9C
100
AcDbEntity
100
AcDbMText
  8
Revision
 62
256
370
-1
  6
BYLAYER
 10
-7.8378827831363092
 20
-2.9999999999999378
 30
0.0
 40
1.8
 41
0.0
 71
5
 72
1
  1
Checked
  7
textstyle16
 50
0.0
 73
1
 44
1.0
  0
LINE
  5
9D
100
AcDbEntity
100
AcDbLine
  8
Revision
 62
256
370
-1
  6
BYLAYER
 10
-170.0
 20
-11.9999999999999396
 30
0.0
 11
0.0
 21
-11.9999999999999396
 31
0.0
  0
LINE
  5
9E
100
AcDbEntity
100
AcDbLine
  8
Revision
 62
256
370
-1
  6
BYLAYER
 10
0.0
 20
-5.9999999999999432
 30
0.0
 11
-170.0
 21
-5.9999999999999432
 31
0.0
  0
LINE
  5
9F
100
AcDbEntity
100
AcDbLine
  8
Revision
 62
256
370
-1
  6
BYLAYER
 10
-170.0
 20
-5.9999999999999432
 30
0.0
 11
-170.0
 21
-11.9999999999999396
 31
0.0
  0
LINE
  5
A0
100
AcDbEntity
100
AcDbLine
  8
Revision
 62
256
370
-1
  6
BYLAYER
 10
-158.0000000000001137
 20
-5.9999999999999432
 30
0.0
 11
-158.0000000000001137
 21
-11.9999999999999396
 31
0.0
  0
LINE
  5
A1
100
AcDbEntity
100
AcDbLine
  8
Revision
 62
256
370
-1
  6
BYLAYER
 10
-48.9999999999999716
 20
-5.9999999999998863
 30
0.0
 11
-48.9999999999999716
 21
-11.9999999999999396
 31
0.0
  0
LINE
  5
A2
100
AcDbEntity
100
AcDbLine
  8
Revision
 62
256
370
-1
  6
BYLAYER
 10
-28.9999999999997691
 20
-5.9999999999999432
 30
0.0
 11
-28.9999999999997691
 21
-11.9999999999999396
 31
0.0
  0
LINE
  5
A3
100
AcDbEntity
100
AcDbLine
  8
Revision
 62
256
370
-1
  6
BYLAYER
 10
-14.0
 20
-6.0000000000002842
 30
0.0
 11
-14.0
 21
-11.9999999999999396
 31
0.0
  0
LINE
  5
A4
100
AcDbEntity
100
AcDbLine
  8
Revision
 62
256
370
-1
  6
BYLAYER
 10
-169.9999999999998863
 20
0.0000000000000568
 30
0.0
 11
-14.0
 21
0.0000000000000568
 31
0.0
  0
LINE
  5
A5
100
AcDbEntity
100
AcDbLine
  8
Revision
 62
256
370
-1
  6
BYLAYER
 10
0.0
 20
-11.9999999999999396
 30
0.0
 11
0.0
 21
-5.9999999999999432
 31
0.0
  0
LINE
  5
A6
100
AcDbEntity
100
AcDbLine
  8
Revision
 62
256
370
-1
  6
BYLAYER
 10
0.0
 20
-6.0000000000000568
 30
0.0
 11
0.0
 21
-0.0000000000000568
 31
0.0
  0
LINE
  5
A7
100
AcDbEntity
100
AcDbLine
  8
Revision
 62
256
370
-1
  6
BYLAYER
 10
0.0
 20
-0.0000000000000568
 30
0.0
 11
-14.0
 21
0.0000000000000568
 31
0.0
  0
LINE
  5
A8
100
AcDbEntity
100
AcDbLine
  8
Revision
 62
256
370
-1
  6
BYLAYER
 10
-170.0
 20
-5.9999999999999432
 30
0.0
 11
-169.9999999999998863
 21
0.0000000000000568
 31
0.0
  0
LINE
  5
A9
100
AcDbEntity
100
AcDbLine
  8
Revision
 62
256
370
-1
  6
BYLAYER
 10
-170.0
 20
-5.9999999999999432
 30
0.0
 11
-169.9999999999998863
 21
-5.9999999999999432
 31
0.0
  0
LINE
  5
AA
100
AcDbEntity
100
AcDbLine
  8
Revision
 62
256
370
-1
  6
BYLAYER
 10
-158.0000000000001137
 20
-5.9999999999998863
 30
0.0
 11
-157.9999999999998863
 21
0.0000000000000568
 31
0.0
  0
LINE
  5
AB
100
AcDbEntity
100
AcDbLine
  8
Revision
 62
256
370
-1
  6
BYLAYER
 10
-48.9999999999999716
 20
-5.9999999999998863
 30
0.0
 11
-48.9999999999998934
 21
0.0000000000000568
 31
0.0
  0
LINE
  5
AC
100
AcDbEntity
100
AcDbLine
  8
Revision
 62
256
370
-1
  6
BYLAYER
 10
-28.9999999999997691
 20
-6.0000000000002842
 30
0.0
 11
-28.9999999999998899
 21
0.0000000000000568
 31
0.0
  0
LINE
  5
AD
100
AcDbEntity
100
AcDbLine
  8
Revision
 62
256
370
-1
  6
BYLAYER
 10
-14.0
 20
-5.9999999999999432
 30
0.0
 11
-14.0
 21
0.0000000000000568
 31
0.0
  0
LINE
  5
AE
100
AcDbEntity
100
AcDbLine
  8
Revision
 62
256
370
-1
  6
BYLAYER
 10
-48.9999999999999716
 20
-6.0000000000002842
 30
0.0
 11
-28.9999999999998899
 21
-6.0000000000002842
 31
0.0
  0
LINE
  5
AF
100
AcDbEntity
100
AcDbLine
  8
Revision
 62
256
370
-1
  6
BYLAYER
 10
-28.9999999999998899
 20
-6.0000000000002842
 30
0.0
 11
-14.0
 21
-6.0000000000002842
 31
0.0
  0
LINE
  5
B0
100
AcDbEntity
100
AcDbLine
  8
Revision
 62
256
370
-1
  6
BYLAYER
 10
-14.0
 20
-6.0000000000002842
 30
0.0
 11
0.0000000000002274
 21
-6.0000000000002842
 31
0.0
  0
LINE
  5
B1
100
AcDbEntity
100
AcDbLine
  8
Revision
 62
256
370
-1
  6
BYLAYER
 10
-158.0000000000001137
 20
-5.9999999999999432
 30
0.0
 11
-48.9999999999999716
 21
-6.0000000000002842
 31
0.0
  0
LINE
  5
B2
100
AcDbEntity
100
AcDbLine
  8
Revision
 62
256
370
-1
  6
BYLAYER
 10
-169.9999999999998863
 20
-5.9999999999999432
 30
0.0
 11
-158.0000000000001137
 21
-5.9999999999999432
 31
0.0
  0
MTEXT
  5
B3
100
AcDbEntity
100
AcDbMText
  8
Revision
 62
256
370
-1
  6
BYLAYER
 10
-164.0
 20
-3.0000000000006257
 30
0.0
 40
1.8
 41
0.0
 71
5
 72
1
  1
Rev No
  7
textstyle17
 50
0.0
 73
1
 44
1.0
  0
ENDBLK
  5
B4
100
AcDbEntity
  8
0
100
AcDbBlockEnd
  0
BLOCK
  5
B5
100
AcDbEntity
  8
0
100
AcDbBlockBegin
  2
iso_en_a4_metric_landscape_aec
 70
0
 10
0.0
 20
0.0
 30
0.0
  3
iso_en_a4_metric_landscape_aec
  1

  0
LINE
  5
B6
100
AcDbEntity
100
AcDbLine
  8
Border
 62
0
370
0
  6
CONTINUOUS
 10
286.9999999999998863
 20
9.9999999999999716
 30
0.0
 11
286.9999999999998863
 21
9.9999999999999716
 31
0.0
  0
LINE
  5
B7
100
AcDbEntity
100
AcDbLine
  8
Border
 62
0
370
0
  6
CONTINUOUS
 10
287.0000000000001137
 20
200.0
 30
0.0
 11
287.0000000000001137
 21
200.0
 31
0.0
  0
LINE
  5
B8
100
AcDbEntity
100
AcDbLine
  8
Border
 62
0
370
0
  6
CONTINUOUS
 10
10.0000000000000604
 20
200.0
 30
0.0
 11
10.0000000000000604
 21
200.0
 31
0.0
  0
LINE
  5
B9
100
AcDbEntity
100
AcDbLine
  8
Border
 62
0
370
0
  6
CONTINUOUS
 10
10.0000000000000604
 20
10.0
 30
0.0
 11
10.0000000000000604
 21
10.0
 31
0.0
  0
LINE
  5
BA
100
AcDbEntity
100
AcDbLine
  8
Border
 62
0
370
0
  6
CONTINUOUS
 10
148.5
 20
10.0000000000000302
 30
0.0
 11
148.5
 21
5.0
 31
0.0
  0
LINE
  5
BB
100
AcDbEntity
100
AcDbLine
  8
Border
 62
0
370
0
  6
CONTINUOUS
 10
98.4999999999999716
 20
5.0000000000003686
 30
0.0
 11
198.5
 21
5.0000000000000853
 31
0.0
  0
LINE
  5
BC
100
AcDbEntity
100
AcDbLine
  8
Border
 62
0
370
0
  6
CONTINUOUS
 10
198.5
 20
5.0000000000000853
 30
0.0
 11
198.5
 21
10.0000000000000906
 31
0.0
  0
LINE
  5
BD
100
AcDbEntity
100
AcDbLine
  8
Border
 62
0
370
0
  6
CONTINUOUS
 10
108.5
 20
4.9999999999999147
 30
0.0
 11
108.5
 21
9.9999999999998863
 31
0.0
  0
LINE
  5
BE
100
AcDbEntity
100
AcDbLine
  8
Border
 62
0
370
0
  6
CONTINUOUS
 10
118.5
 20
4.9999999999999432
 30
0.0
 11
118.5
 21
10.0000000000000302
 31
0.0
  0
LINE
  5
BF
100
AcDbEntity
100
AcDbLine
  8
Border
 62
0
370
0
  6
CONTINUOUS
 10
128.5
 20
5.000000000000199
 30
0.0
 11
128.5
 21
9.9999999999999716
 31
0.0
  0
LINE
  5
C0
100
AcDbEntity
100
AcDbLine
  8
Border
 62
0
370
0
  6
CONTINUOUS
 10
138.5
 20
5.0000000000003411
 30
0.0
 11
138.5
 21
9.9999999999999716
 31
0.0
  0
LINE
  5
C1
100
AcDbEntity
100
AcDbLine
  8
Border
 62
0
370
0
  6
CONTINUOUS
 10
158.5
 20
4.9999999999999432
 30
0.0
 11
158.5
 21
10.0000000000000604
 31
0.0
  0
LINE
  5
C2
100
AcDbEntity
100
AcDbLine
  8
Border
 62
0
370
0
  6
CONTINUOUS
 10
168.5
 20
5.0000000000000568
 30
0.0
 11
168.5
 21
9.9999999999999716
 31
0.0
  0
LINE
  5
C3
100
AcDbEntity
100
AcDbLine
  8
Border
 62
0
370
0
  6
CONTINUOUS
 10
178.5
 20
4.9999999999999432
 30
0.0
 11
178.5
 21
10.0000000000000906
 31
0.0
  0
LINE
  5
C4
100
AcDbEntity
100
AcDbLine
  8
Border
 62
0
370
0
  6
CONTINUOUS
 10
188.5
 20
4.9999999999999716
 30
0.0
 11
188.5
 21
10.0000000000000302
 31
0.0
  0
LINE
  5
C5
100
AcDbEntity
100
AcDbLine
  8
Border
 62
0
370
0
  6
CONTINUOUS
 10
5.0000000000000853
 20
105.0000000000000995
 30
0.0
 11
15.0000000000000302
 21
105.0
 31
0.0
  0
LINE
  5
C6
100
AcDbEntity
100
AcDbLine
  8
Border
 62
0
370
0
  6
CONTINUOUS
 10
148.5000000000001137
 20
195.0
 30
0.0
 11
148.5000000000001137
 21
205.0
 31
0.0
  0
LINE
  5
C7
100
AcDbEntity
100
AcDbLine
  8
Border
 62
0
370
0
  6
CONTINUOUS
 10
148.5
 20
10.0000000000000302
 30
0.0
 11
148.5
 21
15.0000000000001403
 31
0.0
  0
LINE
  5
C8
100
AcDbEntity
100
AcDbLine
  8
Border
 62
0
370
0
  6
CONTINUOUS
 10
12.5000000000001101
 20
107.500000000000199
 30
0.0
 11
12.5000000000000302
 21
102.5
 31
0.0
  0
LINE
  5
C9
100
AcDbEntity
100
AcDbLine
  8
Border
 62
0
370
0
  6
CONTINUOUS
 10
12.5000000000000302
 20
102.5
 30
0.0
 11
7.5
 21
105.0
 31
0.0
  0
LINE
  5
CA
100
AcDbEntity
100
AcDbLine
  8
Border
 62
0
370
0
  6
CONTINUOUS
 10
7.5
 20
105.0
 30
0.0
 11
12.5000000000001101
 21
107.500000000000199
 31
0.0
  0
LINE
  5
CB
100
AcDbEntity
100
AcDbLine
  8
Border
 62
0
370
0
  6
CONTINUOUS
 10
148.5
 20
7.5000000000000284
 30
0.0
 11
146.0
 21
12.5000000000000604
 31
0.0
  0
LINE
  5
CC
100
AcDbEntity
100
AcDbLine
  8
Border
 62
0
370
0
  6
CONTINUOUS
 10
146.0
 20
12.5000000000000604
 30
0.0
 11
151.0
 21
12.5000000000000604
 31
0.0
  0
LINE
  5
CD
100
AcDbEntity
100
AcDbLine
  8
Border
 62
0
370
0
  6
CONTINUOUS
 10
151.0
 20
12.5000000000000604
 30
0.0
 11
148.5
 21
7.5000000000000284
 31
0.0
  0
LINE
  5
CE
100
AcDbEntity
100
AcDbLine
  8
Border
 62
0
370
0
  6
CONTINUOUS
 10
10.0000000000000604
 20
57.4999999999999432
 30
0.0
 11
5.0000000000001137
 21
57.4999999999999432
 31
0.0
  0
LINE
  5
CF
100
AcDbEntity
100
AcDbLine
  8
Border
 62
0
370
0
  6
CONTINUOUS
 10
10.0000000000000604
 20
152.5
 30
0.0
 11
5.0000000000000568
 21
152.5
 31
0.0
  0
LINE
  5
D0
100
AcDbEntity
100
AcDbLine
  8
Border
 62
0
370
0
  6
CONTINUOUS
 10
102.5
 20
10.0000000000000302
 30
0.0
 11
102.5
 21
4.9999999999999716
 31
0.0
  0
LINE
  5
D1
100
AcDbEntity
100
AcDbLine
  8
Border
 62
0
370
0
  6
CONTINUOUS
 10
56.5000000000000284
 20
10.0
 30
0.0
 11
56.5000000000000568
 21
4.9999999999999716
 31
0.0
  0
LINE
  5
D2
100
AcDbEntity
100
AcDbLine
  8
Border
 62
0
370
0
  6
CONTINUOUS
 10
194.5
 20
10.0
 30
0.0
 11
194.5
 21
5.0
 31
0.0
  0
LINE
  5
D3
100
AcDbEntity
100
AcDbLine
  8
Border
 62
0
370
0
  6
CONTINUOUS
 10
240.5
 20
10.0
 30
0.0
 11
240.5
 21
5.0
 31
0.0
  0
LINE
  5
D4
100
AcDbEntity
100
AcDbLine
  8
Border
 62
0
370
0
  6
CONTINUOUS
 10
56.5000000000000568
 20
205.0
 30
0.0
 11
56.5000000000000568
 21
200.0
 31
0.0
  0
LINE
  5
D5
100
AcDbEntity
100
AcDbLine
  8
Border
 62
0
370
0
  6
CONTINUOUS
 10
102.5000000000000995
 20
205.0
 30
0.0
 11
102.5000000000000995
 21
199.9999999999998863
 31
0.0
  0
LINE
  5
D6
100
AcDbEntity
100
AcDbLine
  8
Border
 62
0
370
0
  6
CONTINUOUS
 10
194.5000000000001137
 20
205.0
 30
0.0
 11
194.5000000000001137
 21
200.0
 31
0.0
  0
LINE
  5
D7
100
AcDbEntity
100
AcDbLine
  8
Border
 62
0
370
0
  6
CONTINUOUS
 10
240.5000000000001137
 20
205.0
 30
0.0
 11
240.5000000000001137
 21
200.0
 31
0.0
  0
LINE
  5
D8
100
AcDbEntity
100
AcDbLine
  8
Border
 62
0
370
0
  6
CONTINUOUS
 10
56.5000000000000284
 20
10.0
 30
0.0
 11
56.5000000000000284
 21
10.0
 31
0.0
  0
LINE
  5
D9
100
AcDbEntity
100
AcDbLine
  8
Border
 62
0
370
0
  6
CONTINUOUS
 10
56.5000000000000568
 20
200.0
 30
0.0
 11
56.5000000000000568
 21
200.0
 31
0.0
  0
LINE
  5
DA
100
AcDbEntity
100
AcDbLine
  8
Border
 62
0
370
0
  6
CONTINUOUS
 10
10.0000000000000604
 20
57.4999999999999432
 30
0.0
 11
10.0000000000000604
 21
10.0
 31
0.0
  0
LINE
  5
DB
100
AcDbEntity
100
AcDbLine
  8
Border
 62
0
370
0
  6
CONTINUOUS
 10
10.0000000000000604
 20
105.0
 30
0.0
 11
10.0000000000000604
 21
57.4999999999999432
 31
0.0
  0
LINE
  5
DC
100
AcDbEntity
100
AcDbLine
  8
Border
 62
0
370
0
  6
CONTINUOUS
 10
10.0000000000000604
 20
152.5
 30
0.0
 11
10.0000000000000604
 21
105.0
 31
0.0
  0
LINE
  5
DD
100
AcDbEntity
100
AcDbLine
  8
Border
 62
0
370
0
  6
CONTINUOUS
 10
98.4999999999999716
 20
10.0000000000000302
 30
0.0
 11
198.5
 21
10.0000000000000906
 31
0.0
  0
LINE
  5
DE
100
AcDbEntity
100
AcDbLine
  8
Border
 62
0
370
0
  6
CONTINUOUS
 10
287.0
 20
155.0
 30
0.0
 11
287.0000000000001137
 21
200.0
 31
0.0
  0
LINE
  5
DF
100
AcDbEntity
100
AcDbLine
  8
Border
 62
0
370
0
  6
CONTINUOUS
 10
287.0000000000001137
 20
200.0
 30
0.0
 11
287.0000000000001137
 21
200.0
 31
0.0
  0
LINE
  5
E0
100
AcDbEntity
100
AcDbLine
  8
Border
 62
0
370
0
  6
CONTINUOUS
 10
286.9999999999998863
 20
9.9999999999999716
 30
0.0
 11
287.0000000000001137
 21
54.9999999999999716
 31
0.0
  0
LINE
  5
E1
100
AcDbEntity
100
AcDbLine
  8
Border
 62
0
370
0
  6
CONTINUOUS
 10
240.5
 20
10.0
 30
0.0
 11
286.9999999999998863
 21
9.9999999999999716
 31
0.0
  0
LINE
  5
E2
100
AcDbEntity
100
AcDbLine
  8
Border
 62
0
370
0
  6
CONTINUOUS
 10
194.5
 20
10.0
 30
0.0
 11
240.5
 21
10.0
 31
0.0
  0
LINE
  5
E3
100
AcDbEntity
100
AcDbLine
  8
Border
 62
0
370
0
  6
CONTINUOUS
 10
148.5
 20
10.0000000000000604
 30
0.0
 11
194.5
 21
10.0
 31
0.0
  0
LINE
  5
E4
100
AcDbEntity
100
AcDbLine
  8
Border
 62
0
370
0
  6
CONTINUOUS
 10
102.5
 20
10.0000000000000302
 30
0.0
 11
148.5
 21
10.0000000000000604
 31
0.0
  0
LINE
  5
E5
100
AcDbEntity
100
AcDbLine
  8
Border
 62
0
370
0
  6
CONTINUOUS
 10
56.5000000000000284
 20
10.0
 30
0.0
 11
102.5
 21
10.0000000000000302
 31
0.0
  0
LINE
  5
E6
100
AcDbEntity
100
AcDbLine
  8
Border
 62
0
370
0
  6
CONTINUOUS
 10
10.0000000000000604
 20
10.0
 30
0.0
 11
56.5000000000000284
 21
10.0
 31
0.0
  0
LINE
  5
E7
100
AcDbEntity
100
AcDbLine
  8
Border
 62
0
370
0
  6
CONTINUOUS
 10
10.0000000000000604
 20
200.0
 30
0.0
 11
10.0000000000000604
 21
200.0
 31
0.0
  0
LINE
  5
E8
100
AcDbEntity
100
AcDbLine
  8
Border
 62
0
370
0
  6
CONTINUOUS
 10
56.5000000000000568
 20
200.0
 30
0.0
 11
10.0000000000000604
 21
200.0
 31
0.0
  0
LINE
  5
E9
100
AcDbEntity
100
AcDbLine
  8
Border
 62
0
370
0
  6
CONTINUOUS
 10
102.5000000000000995
 20
199.9999999999998863
 30
0.0
 11
56.5000000000000568
 21
200.0
 31
0.0
  0
LINE
  5
EA
100
AcDbEntity
100
AcDbLine
  8
Border
 62
0
370
0
  6
CONTINUOUS
 10
148.5000000000001137
 20
200.0
 30
0.0
 11
102.5000000000000995
 21
199.9999999999998863
 31
0.0
  0
LINE
  5
EB
100
AcDbEntity
100
AcDbLine
  8
Border
 62
0
370
0
  6
CONTINUOUS
 10
194.5000000000001137
 20
200.0
 30
0.0
 11
148.5000000000001137
 21
200.0
 31
0.0
  0
LINE
  5
EC
100
AcDbEntity
100
AcDbLine
  8
Border
 62
0
370
0
  6
CONTINUOUS
 10
240.5000000000001137
 20
199.9999999999998863
 30
0.0
 11
194.5000000000001137
 21
200.0
 31
0.0
  0
LINE
  5
ED
100
AcDbEntity
100
AcDbLine
  8
Border
 62
0
370
0
  6
CONTINUOUS
 10
287.0000000000001137
 20
200.0
 30
0.0
 11
240.5000000000001137
 21
199.9999999999998863
 31
0.0
  0
LINE
  5
EE
100
AcDbEntity
100
AcDbLine
  8
Border
 62
256
370
-1
  6
BYLAYER
 10
0.0
 20
0.0
 30
0.0
 11
0.0000000000000568
 21
210.0
 31
0.0
  0
LINE
  5
EF
100
AcDbEntity
100
AcDbLine
  8
Border
 62
256
370
-1
  6
BYLAYER
 10
0.0000000000000568
 20
210.0
 30
0.0
 11
297.0000000000001137
 21
210.0
 31
0.0
  0
LINE
  5
F0
100
AcDbEntity
100
AcDbLine
  8
Border
 62
256
370
-1
  6
BYLAYER
 10
297.0000000000001137
 20
210.0
 30
0.0
 11
297.0
 21
-0.0000000000000284
 31
0.0
  0
LINE
  5
F1
100
AcDbEntity
100
AcDbLine
  8
Border
 62
256
370
-1
  6
BYLAYER
 10
297.0
 20
-0.0000000000000284
 30
0.0
 11
0.0
 21
0.0
 31
0.0
  0
INSERT
  5
F2
100
AcDbEntity
100
AcDbBlockReference
  8
0
 62
256
370
-1
  6
BYLAYER
  2
Revision
 10
287.0000000000001137
 20
200.0
 30
0.0
  0
INSERT
  5
F3
100
AcDbEntity
100
AcDbBlockReference
  8
0
 62
256
370
-1
  6
BYLAYER
  2
Title
 10
286.9999999999997726
 20
9.9999999999999716
 30
0.0
  0
LINE
  5
F4
100
AcDbEntity
100
AcDbLine
  8
Border
 62
256
370
-1
  6
BYLAYER
 10
98.4999999999999716
 20
10.0000000000000302
 30
0.0
 11
98.4999999999999716
 21
5.0000000000003686
 31
0.0
  0
LINE
  5
F5
100
AcDbEntity
100
AcDbLine
  8
Border
 62
256
370
-1
  6
BYLAYER
 10
10.0000000000000604
 20
200.0
 30
0.0
 11
10.0000000000000604
 21
152.5
 31
0.0
  0
LINE
  5
F6
100
AcDbEntity
100
AcDbLine
  8
Border
 62
256
370
-1
  6
BYLAYER
 10
287.0
 20
155.0
 30
0.0
 11
287.0000000000001137
 21
54.9999999999999716
 31
0.0
  0
LINE
  5
F7
100
AcDbEntity
100
AcDbLine
  8
Border
 62
256
370
-1
  6
BYLAYER
 10
282.0
 20
105.0
 30
0.0
 11
292.0
 21
105.0
 31
0.0
  0
LINE
  5
F8
100
AcDbEntity
100
AcDbLine
  8
Border
 62
256
370
-1
  6
BYLAYER
 10
287.0000000000001137
 20
57.4999999999999574
 30
0.0
 11
292.0000000000001137
 21
57.4999999999999574
 31
0.0
  0
LINE
  5
F9
100
AcDbEntity
100
AcDbLine
  8
Border
 62
256
370
-1
  6
BYLAYER
 10
287.0
 20
152.5
 30
0.0
 11
292.0
 21
152.5
 31
0.0
  0
MTEXT
  5
FA
100
AcDbEntity
100
AcDbMText
  8
Border
 62
256
370
-1
  6
BYLAYER
 10
7.0000000000000773
 20
176.25
 30
0.0
 40
4.0
 41
0.0
 71
5
 72
1
  1
A
  7
textstyle18
 50
0.0
 73
1
 44
1.0
  0
MTEXT
  5
FB
100
AcDbEntity
100
AcDbMText
  8
Border
 62
256
370
-1
  6
BYLAYER
 10
290.0000000000001137
 20
176.25
 30
0.0
 40
4.0
 41
0.0
 71
5
 72
1
  1
A
  7
textstyle19
 50
0.0
 73
1
 44
1.0
  0
MTEXT
  5
FC
100
AcDbEntity
100
AcDbMText
  8
Border
 62
256
370
-1
  6
BYLAYER
 10
7.0000000000001092
 20
33.7499999999999432
 30
0.0
 40
4.0
 41
0.0
 71
5
 72
1
  1
D
  7
textstyle20
 50
0.0
 73
1
 44
1.0
  0
MTEXT
  5
FD
100
AcDbEntity
100
AcDbMText
  8
Border
 62
256
370
-1
  6
BYLAYER
 10
290.0000000000002274
 20
33.7500000000002345
 30
0.0
 40
4.0
 41
0.0
 71
5
 72
1
  1
D
  7
textstyle21
 50
0.0
 73
1
 44
1.0
  0
MTEXT
  5
FE
100
AcDbEntity
100
AcDbMText
  8
Border
 62
256
370
-1
  6
BYLAYER
 10
7.0000000000000915
 20
81.2499999999999147
 30
0.0
 40
4.0
 41
0.0
 71
5
 72
1
  1
C
  7
textstyle22
 50
0.0
 73
1
 44
1.0
  0
MTEXT
  5
FF
100
AcDbEntity
100
AcDbMText
  8
Border
 62
256
370
-1
  6
BYLAYER
 10
290.0000000000001137
 20
81.2499999999999005
 30
0.0
 40
4.0
 41
0.0
 71
5
 72
1
  1
C
  7
textstyle23
 50
0.0
 73
1
 44
1.0
  0
MTEXT
  5
100
100
AcDbEntity
100
AcDbMText
  8
Border
 62
256
370
-1
  6
BYLAYER
 10
7.0000000000000844
 20
128.75
 30
0.0
 40
4.0
 41
0.0
 71
5
 72
1
  1
B
  7
textstyle24
 50
0.0
 73
1
 44
1.0
  0
MTEXT
  5
101
100
AcDbEntity
100
AcDbMText
  8
Border
 62
256
370
-1
  6
BYLAYER
 10
290.0000000000001137
 20
128.7500000000000284
 30
0.0
 40
4.0
 41
0.0
 71
5
 72
1
  1
B
  7
textstyle25
 50
0.0
 73
1
 44
1.0
  0
MTEXT
  5
102
100
AcDbEntity
100
AcDbMText
  8
Border
 62
256
370
-1
  6
BYLAYER
 10
33.2500000000000497
 20
203.0
 30
0.0
 40
4.0
 41
0.0
 71
5
 72
1
  1
1
  7
textstyle26
 50
0.0
 73
1
 44
1.0
  0
MTEXT
  5
103
100
AcDbEntity
100
AcDbMText
  8
Border
 62
256
370
-1
  6
BYLAYER
 10
33.2500000000000568
 20
6.9999999999999689
 30
0.0
 40
4.0
 41
0.0
 71
5
 72
1
  1
1
  7
textstyle27
 50
0.0
 73
1
 44
1.0
  0
MTEXT
  5
104
100
AcDbEntity
100
AcDbMText
  8
Border
 62
256
370
-1
  6
BYLAYER
 10
79.5000000000000568
 20
203.0
 30
0.0
 40
4.0
 41
0.0
 71
5
 72
1
  1
2
  7
textstyle28
 50
0.0
 73
1
 44
1.0
  0
MTEXT
  5
105
100
AcDbEntity
100
AcDbMText
  8
Border
 62
256
370
-1
  6
BYLAYER
 10
79.5000000000000568
 20
6.9999999999999822
 30
0.0
 40
4.0
 41
0.0
 71
5
 72
1
  1
2
  7
textstyle29
 50
0.0
 73
1
 44
1.0
  0
MTEXT
  5
106
100
AcDbEntity
100
AcDbMText
  8
Border
 62
256
370
-1
  6
BYLAYER
 10
125.5000000000001279
 20
203.0
 30
0.0
 40
4.0
 41
0.0
 71
5
 72
1
  1
3
  7
textstyle30
 50
0.0
 73
1
 44
1.0
  0
MTEXT
  5
107
100
AcDbEntity
100
AcDbMText
  8
Border
 62
256
370
-1
  6
BYLAYER
 10
171.5
 20
203.0
 30
0.0
 40
4.0
 41
0.0
 71
5
 72
1
  1
4
  7
textstyle31
 50
0.0
 73
1
 44
1.0
  0
MTEXT
  5
108
100
AcDbEntity
100
AcDbMText
  8
Border
 62
256
370
-1
  6
BYLAYER
 10
217.5000000000001137
 20
203.0000000000000284
 30
0.0
 40
4.0
 41
0.0
 71
5
 72
1
  1
5
  7
textstyle32
 50
0.0
 73
1
 44
1.0
  0
MTEXT
  5
109
100
AcDbEntity
100
AcDbMText
  8
Border
 62
256
370
-1
  6
BYLAYER
 10
217.4999999999998863
 20
6.9999999999997708
 30
0.0
 40
4.0
 41
0.0
 71
5
 72
1
  1
5
  7
textstyle33
 50
0.0
 73
1
 44
1.0
  0
MTEXT
  5
10A
100
AcDbEntity
100
AcDbMText
  8
Border
 62
256
370
-1
  6
BYLAYER
 10
263.7500000000001137
 20
202.9999999999999716
 30
0.0
 40
4.0
 41
0.0
 71
5
 72
1
  1
6
  7
textstyle34
 50
0.0
 73
1
 44
1.0
  0
MTEXT
  5
10B
100
AcDbEntity
100
AcDbMText
  8
Border
 62
256
370
-1
  6
BYLAYER
 10
263.7499999999997726
 20
7.0000000000006528
 30
0.0
 40
4.0
 41
0.0
 71
5
 72
1
  1
6
  7
textstyle35
 50
0.0
 73
1
 44
1.0
  0
ENDBLK
  5
10C
100
AcDbEntity
  8
0
100
AcDbBlockEnd
  0
ENDSEC
  0
SECTION
  2
ENTITIES
  0
INSERT
  5
10D
100
AcDbEntity
100
AcDbBlockReference
  8
0
 62
256
370
-1
  6
BYLAYER
  2
iso_en_a4_metric_landscape_aec
 10
0.0
 20
0.0
 30
0.0
  0
LINE
  5
10E
100
AcDbEntity
100
AcDbLine
  8
0
 62
7
420
0
370
-1
  6
BYLAYER
 10
19.5000000091666621
 20
44.0218423752596237
 30
0.0
 11
19.5000000091666621
 21
44.5583423621451828
 31
0.0
  0
LINE
  5
10F
100
AcDbEntity
100
AcDbLine
  8
0
 62
7
420
0
370
-1
  6
BYLAYER
 10
19.5000000091666621
 20
44.5583423621451828
 30
0.0
 11
19.5000000091666621
 21
45.2363423455718277
 31
0.0
  0
LINE
  5
110
100
AcDbEntity
100
AcDbLine
  8
0
 62
7
420
0
370
-1
  6
BYLAYER
 10
19.5000000091666621
 20
45.2363423455718277
 30
0.0
 11
19.5000000091666621
 21
46.0473423257474082
 31
0.0
  0
LINE
  5
111
100
AcDbEntity
100
AcDbLine
  8
0
 62
7
420
0
370
-1
  6
BYLAYER
 10
19.5000000091666621
 20
46.0473423257474082
 30
0.0
 11
19.5000000091666621
 21
46.9813423029163033
 31
0.0
  0
LINE
  5
112
100
AcDbEntity
100
AcDbLine
  8
0
 62
7
420
0
370
-1
  6
BYLAYER
 10
19.5000000091666621
 20
46.9813423029163033
 30
0.0
 11
19.5000000091666621
 21
48.02684227735962
 31
0.0
  0
LINE
  5
113
100
AcDbEntity
100
AcDbLine
  8
0
 62
7
420
0
370
-1
  6
BYLAYER
 10
19.5000000091666621
 20
48.02684227735962
 30
0.0
 11
19.5000000091666621
 21
49.1698422494196024
 31
0.0
  0
LINE
  5
114
100
AcDbEntity
100
AcDbLine
  8
0
 62
7
420
0
370
-1
  6
BYLAYER
 10
19.5000000091666621
 20
49.1698422494196024
 30
0.0
 11
19.5000000091666621
 21
50.3968422194262899
 31
0.0
  0
LINE
  5
115
100
AcDbEntity
100
AcDbLine
  8
0
 62
7
420
0
370
-1
  6
BYLAYER
 10
19.5000000091666621
 20
50.3968422194262899
 30
0.0
 11
19.5000000091666621
 21
51.6918421877707459
 31
0.0
  0
LINE
  5
116
100
AcDbEntity
100
AcDbLine
  8
0
 62
7
420
0
370
-1
  6
BYLAYER
 10
19.5000000091666621
 20
51.6918421877707459
 30
0.0
 11
19.5000000091666621
 21
53.0388421548440618
 31
0.0
  0
LINE
  5
117
100
AcDbEntity
100
AcDbLine
  8
0
 62
7
420
0
370
-1
  6
BYLAYER
 10
19.5000000091666621
 20
53.0388421548440618
 30
0.0
 11
19.5000000091666621
 21
54.4208421210618383
 31
0.0
  0
LINE
  5
118
100
AcDbEntity
100
AcDbLine
  8
0
 62
7
420
0
370
-1
  6
BYLAYER
 10
19.5000000091666621
 20
54.4208421210618383
 30
0.0
 11
19.5000000091666621
 21
55.8203420868518521
 31
0.0
  0
LINE
  5
119
100
AcDbEntity
100
AcDbLine
  8
0
 62
7
420
0
370
-1
  6
BYLAYER
 10
20.9999999724999924
 20
43.3203423924074258
 30
0.0
 11
20.9999999724999924
 21
43.3988423904885252
 31
0.0
  0
LINE
  5
11A
100
AcDbEntity
100
AcDbLine
  8
0
 62
7
420
0
370
-1
  6
BYLAYER
 10
20.9999999724999924
 20
43.3988423904885252
 30
0.0
 11
20.9999999724999924
 21
43.6338423847440851
 31
0.0
  0
LINE
  5
11B
100
AcDbEntity
100
AcDbLine
  8
0
 62
7
420
0
370
-1
  6
BYLAYER
 10
20.9999999724999924
 20
43.6338423847440851
 30
0.0
 11
20.9999999724999924
 21
44.0218423752596237
 31
0.0
  0
LINE
  5
11C
100
AcDbEntity
100
AcDbLine
  8
0
 62
7
420
0
370
-1
  6
BYLAYER
 10
20.9999999724999924
 20
44.0218423752596237
 30
0.0
 11
20.9999999724999924
 21
44.5583423621451828
 31
0.0
  0
LINE
  5
11D
100
AcDbEntity
100
AcDbLine
  8
0
 62
7
420
0
370
-1
  6
BYLAYER
 10
20.9999999724999924
 20
44.5583423621451828
 30
0.0
 11
20.9999999724999924
 21
45.2363423455718277
 31
0.0
  0
LINE
  5
11E
100
AcDbEntity
100
AcDbLine
  8
0
 62
7
420
0
370
-1
  6
BYLAYER
 10
20.9999999724999924
 20
45.2363423455718277
 30
0.0
 11
20.9999999724999924
 21
46.0473423257474082
 31
0.0
  0
LINE
  5
11F
100
AcDbEntity
100
AcDbLine
  8
0
 62
7
420
0
370
-1
  6
BYLAYER
 10
20.9999999724999924
 20
46.0473423257474082
 30
0.0
 11
20.9999999724999924
 21
46.9813423029163033
 31
0.0
  0
LINE
  5
120
100
AcDbEntity
100
AcDbLine
  8
0
 62
7
420
0
370
-1
  6
BYLAYER
 10
20.9999999724999924
 20
46.9813423029163033
 30
0.0
 11
20.9999999724999924
 21
48.02684227735962
 31
0.0
  0
LINE
  5
121
100
AcDbEntity
100
AcDbLine
  8
0
 62
7
420
0
370
-1
  6
BYLAYER
 10
20.9999999724999924
 20
48.02684227735962
 30
0.0
 11
20.9999999724999924
 21
49.1698422494196024
 31
0.0
  0
LINE
  5
122
100
AcDbEntity
100
AcDbLine
  8
0
 62
7
420
0
370
-1
  6
BYLAYER
 10
20.9999999724999924
 20
49.1698422494196024
 30
0.0
 11
20.9999999724999924
 21
50.3968422194262899
 31
0.0
  0
LINE
  5
123
100
AcDbEntity
100
AcDbLine
  8
0
 62
7
420
0
370
-1
  6
BYLAYER
 10
20.9999999724999924
 20
50.3968422194262899
 30
0.0
 11
20.9999999724999924
 21
51.6918421877707459
 31
0.0
  0
LINE
  5
124
100
AcDbEntity
100
AcDbLine
  8
0
 62
7
420
0
370
-1
  6
BYLAYER
 10
20.9999999724999924
 20
51.6918421877707459
 30
0.0
 11
20.9999999724999924
 21
53.0388421548440618
 31
0.0
  0
LINE
  5
125
100
AcDbEntity
100
AcDbLine
  8
0
 62
7
420
0
370
-1
  6
BYLAYER
 10
20.9999999724999924
 20
53.0388421548440618
 30
0.0
 11
20.9999999724999924
 21
54.4208421210618383
 31
0.0
  0
LINE
  5
126
100
AcDbEntity
100
AcDbLine
  8
0
 62
7
420
0
370
-1
  6
BYLAYER
 10
20.9999999724999924
 20
54.4208421210618383
 30
0.0
 11
20.9999999724999924
 21
55.8203420868518521
 31
0.0
  0
LINE
  5
127
100
AcDbEntity
100
AcDbLine
  8
0
 62
7
420
0
370
-1
  6
BYLAYER
 10
19.5000000091666621
 20
55.8203420868518663
 30
0.0
 11
19.5000000091666621
 21
155.8203396424074185
 31
0.0
  0
LINE
  5
128
100
AcDbEntity
100
AcDbLine
  8
0
 62
7
420
0
370
-1
  6
BYLAYER
 10
20.9999999724999924
 20
55.8203420868518663
 30
0.0
 11
20.9999999724999924
 21
155.8203396424074185
 31
0.0
  0
LINE
  5
129
100
AcDbEntity
100
AcDbLine
  8
0
 62
7
420
0
370
-1
  6
BYLAYER
 10
19.5000000091666621
 20
155.8203396424074185
 30
0.0
 11
19.5000000091666621
 21
157.2198396081974465
 31
0.0
  0
LINE
  5
12A
100
AcDbEntity
100
AcDbLine
  8
0
 62
7
420
0
370
-1
  6
BYLAYER
 10
19.5000000091666621
 20
157.2198396081974465
 30
0.0
 11
19.5000000091666621
 21
158.6018395744151803
 31
0.0
  0
LINE
  5
12B
100
AcDbEntity
100
AcDbLine
  8
0
 62
7
420
0
370
-1
  6
BYLAYER
 10
19.5000000091666621
 20
158.6018395744151803
 30
0.0
 11
19.5000000091666621
 21
159.9488395414885531
 31
0.0
  0
LINE
  5
12C
100
AcDbEntity
100
AcDbLine
  8
0
 62
7
420
0
370
-1
  6
BYLAYER
 10
19.5000000091666621
 20
159.9488395414885531
 30
0.0
 11
19.5000000091666621
 21
161.2438395098329806
 31
0.0
  0
LINE
  5
12D
100
AcDbEntity
100
AcDbLine
  8
0
 62
7
420
0
370
-1
  6
BYLAYER
 10
19.5000000091666621
 20
161.2438395098329806
 30
0.0
 11
19.5000000091666621
 21
162.4708394798396398
 31
0.0
  0
LINE
  5
12E
100
AcDbEntity
100
AcDbLine
  8
0
 62
7
420
0
370
-1
  6
BYLAYER
 10
19.5000000091666621
 20
162.4708394798396398
 30
0.0
 11
19.5000000091666621
 21
163.6138394518996506
 31
0.0
  0
LINE
  5
12F
100
AcDbEntity
100
AcDbLine
  8
0
 62
7
420
0
370
-1
  6
BYLAYER
 10
19.5000000091666621
 20
163.6138394518996506
 30
0.0
 11
19.5000000091666621
 21
164.6593394263429673
 31
0.0
  0
LINE
  5
130
100
AcDbEntity
100
AcDbLine
  8
0
 62
7
420
0
370
-1
  6
BYLAYER
 10
19.5000000091666621
 20
164.6593394263429673
 30
0.0
 11
19.5000000091666621
 21
165.593339403511834
 31
0.0
  0
LINE
  5
131
100
AcDbEntity
100
AcDbLine
  8
0
 62
7
420
0
370
-1
  6
BYLAYER
 10
19.5000000091666621
 20
165.593339403511834
 30
0.0
 11
19.5000000091666621
 21
166.4043393836873861
 31
0.0
  0
LINE
  5
132
100
AcDbEntity
100
AcDbLine
  8
0
 62
7
420
0
370
-1
  6
BYLAYER
 10
19.5000000091666621
 20
166.4043393836873861
 30
0.0
 11
19.5000000091666621
 21
167.0823393671140593
 31
0.0
  0
LINE
  5
133
100
AcDbEntity
100
AcDbLine
  8
0
 62
7
420
0
370
-1
  6
BYLAYER
 10
19.5000000091666621
 20
167.0823393671140593
 30
0.0
 11
19.5000000091666621
 21
167.6188393539996468
 31
0.0
  0
LINE
  5
134
100
AcDbEntity
100
AcDbLine
  8
0
 62
7
420
0
370
-1
  6
BYLAYER
 10
19.5000000091666621
 20
167.6188393539996468
 30
0.0
 11
19.5000000091666621
 21
168.0068393445151855
 31
0.0
  0
LINE
  5
135
100
AcDbEntity
100
AcDbLine
  8
0
 62
7
420
0
370
-1
  6
BYLAYER
 10
19.5000000091666621
 20
168.0068393445151855
 30
0.0
 11
19.5000000091666621
 21
168.2418393387707169
 31
0.0
  0
LINE
  5
136
100
AcDbEntity
100
AcDbLine
  8
0
 62
7
420
0
370
-1
  6
BYLAYER
 10
19.5000000091666621
 20
168.2418393387707169
 30
0.0
 11
19.5000000091666621
 21
168.3203393368518732
 31
0.0
  0
LINE
  5
137
100
AcDbEntity
100
AcDbLine
  8
0
 62
7
420
0
370
-1
  6
BYLAYER
 10
20.9999999724999924
 20
155.8203396424074185
 30
0.0
 11
20.9999999724999924
 21
157.2198396081974465
 31
0.0
  0
LINE
  5
138
100
AcDbEntity
100
AcDbLine
  8
0
 62
7
420
0
370
-1
  6
BYLAYER
 10
20.9999999724999924
 20
157.2198396081974465
 30
0.0
 11
20.9999999724999924
 21
158.6018395744151803
 31
0.0
  0
LINE
  5
139
100
AcDbEntity
100
AcDbLine
  8
0
 62
7
420
0
370
-1
  6
BYLAYER
 10
20.9999999724999924
 20
158.6018395744151803
 30
0.0
 11
20.9999999724999924
 21
159.9488395414885531
 31
0.0
  0
LINE
  5
13A
100
AcDbEntity
100
AcDbLine
  8
0
 62
7
420
0
370
-1
  6
BYLAYER
 10
20.9999999724999924
 20
159.9488395414885531
 30
0.0
 11
20.9999999724999924
 21
161.2438395098329806
 31
0.0
  0
LINE
  5
13B
100
AcDbEntity
100
AcDbLine
  8
0
 62
7
420
0
370
-1
  6
BYLAYER
 10
20.9999999724999924
 20
161.2438395098329806
 30
0.0
 11
20.9999999724999924
 21
162.4708394798396398
 31
0.0
  0
LINE
  5
13C
100
AcDbEntity
100
AcDbLine
  8
0
 62
7
420
0
370
-1
  6
BYLAYER
 10
20.9999999724999924
 20
162.4708394798396398
 30
0.0
 11
20.9999999724999924
 21
163.6138394518996506
 31
0.0
  0
LINE
  5
13D
100
AcDbEntity
100
AcDbLine
  8
0
 62
7
420
0
370
-1
  6
BYLAYER
 10
20.9999999724999924
 20
163.6138394518996506
 30
0.0
 11
20.9999999724999924
 21
164.6593394263429673
 31
0.0
  0
LINE
  5
13E
100
AcDbEntity
100
AcDbLine
  8
0
 62
7
420
0
370
-1
  6
BYLAYER
 10
20.9999999724999924
 20
164.6593394263429673
 30
0.0
 11
20.9999999724999924
 21
165.593339403511834
 31
0.0
  0
LINE
  5
13F
100
AcDbEntity
100
AcDbLine
  8
0
 62
7
420
0
370
-1
  6
BYLAYER
 10
20.9999999724999924
 20
165.593339403511834
 30
0.0
 11
20.9999999724999924
 21
166.4043393836873861
 31
0.0
  0
LINE
  5
140
100
AcDbEntity
100
AcDbLine
  8
0
 62
7
420
0
370
-1
  6
BYLAYER
 10
20.9999999724999924
 20
166.4043393836873861
 30
0.0
 11
20.9999999724999924
 21
167.0823393671140593
 31
0.0
  0
LINE
  5
141
100
AcDbEntity
100
AcDbLine
  8
0
 62
7
420
0
370
-1
  6
BYLAYER
 10
20.9999999724999924
 20
167.0823393671140593
 30
0.0
 11
20.9999999724999924
 21
167.6188393539996468
 31
0.0
  0
LINE
  5
142
100
AcDbEntity
100
AcDbLine
  8
0
 62
7
420
0
370
-1
  6
BYLAYER
 10
20.9999999724999924
 20
167.6188393539996468
 30
0.0
 11
20.9999999724999924
 21
168.0068393445151855
 31
0.0
  0
LINE
  5
143
100
AcDbEntity
100
AcDbLine
  8
0
 62
7
420
0
370
-1
  6
BYLAYER
 10
20.9999999724999924
 20
168.0068393445151855
 30
0.0
 11
20.9999999724999924
 21
168.2418393387707169
 31
0.0
  0
LINE
  5
144
100
AcDbEntity
100
AcDbLine
  8
0
 62
7
420
0
370
-1
  6
BYLAYER
 10
20.9999999724999924
 20
168.2418393387707169
 30
0.0
 11
20.9999999724999924
 21
168.3203393368518732
 31
0.0
  0
LINE
  5
145
100
AcDbEntity
100
AcDbLine
  8
0
 62
7
420
0
370
-1
  6
BYLAYER
 10
20.9999999724999924
 20
154.5703396729629731
 30
0.0
 11
20.9999999724999924
 21
154.5781896727710887
 31
0.0
  0
LINE
  5
146
100
AcDbEntity
100
AcDbLine
  8
0
 62
7
420
0
370
-1
  6
BYLAYER
 10
20.9999999724999924
 20
154.5781896727710887
 30
0.0
 11
20.9999999724999924
 21
154.6016896721966418
 31
0.0
  0
LINE
  5
147
100
AcDbEntity
100
AcDbLine
  8
0
 62
7
420
0
370
-1
  6
BYLAYER
 10
20.9999999724999924
 20
154.6016896721966418
 30
0.0
 11
20.9999999724999924
 21
154.64048967124819
 31
0.0
  0
LINE
  5
148
100
AcDbEntity
100
AcDbLine
  8
0
 62
7
420
0
370
-1
  6
BYLAYER
 10
20.9999999724999924
 20
154.64048967124819
 30
0.0
 11
20.9999999724999924
 21
154.6941396699367601
 31
0.0
  0
LINE
  5
149
100
AcDbEntity
100
AcDbLine
  8
0
 62
7
420
0
370
-1
  6
BYLAYER
 10
20.9999999724999924
 20
154.6941396699367601
 30
0.0
 11
20.9999999724999924
 21
154.7619396682794104
 31
0.0
  0
LINE
  5
14A
100
AcDbEntity
100
AcDbLine
  8
0
 62
7
420
0
370
-1
  6
BYLAYER
 10
20.9999999724999924
 20
154.7619396682794104
 30
0.0
 11
20.9999999724999924
 21
154.8430396662969883
 31
0.0
  0
LINE
  5
14B
100
AcDbEntity
100
AcDbLine
  8
0
 62
7
420
0
370
-1
  6
BYLAYER
 10
20.9999999724999924
 20
154.8430396662969883
 30
0.0
 11
20.9999999724999924
 21
154.9364396640138466
 31
0.0
  0
LINE
  5
14C
100
AcDbEntity
100
AcDbLine
  8
0
 62
7
420
0
370
-1
  6
BYLAYER
 10
20.9999999724999924
 20
154.9364396640138466
 30
0.0
 11
20.9999999724999924
 21
155.0409896614581839
 31
0.0
  0
LINE
  5
14D
100
AcDbEntity
100
AcDbLine
  8
0
 62
7
420
0
370
-1
  6
BYLAYER
 10
20.9999999724999924
 20
155.0409896614581839
 30
0.0
 11
20.9999999724999924
 21
155.1552896586641737
 31
0.0
  0
LINE
  5
14E
100
AcDbEntity
100
AcDbLine
  8
0
 62
7
420
0
370
-1
  6
BYLAYER
 10
20.9999999724999924
 20
155.1552896586641737
 30
0.0
 11
20.9999999724999924
 21
155.2779896556648396
 31
0.0
  0
LINE
  5
14F
100
AcDbEntity
100
AcDbLine
  8
0
 62
7
420
0
370
-1
  6
BYLAYER
 10
20.9999999724999924
 20
155.2779896556648396
 30
0.0
 11
20.9999999724999924
 21
155.4074896524992937
 31
0.0
  0
LINE
  5
150
100
AcDbEntity
100
AcDbLine
  8
0
 62
7
420
0
370
-1
  6
BYLAYER
 10
20.9999999724999924
 20
155.4074896524992937
 30
0.0
 11
20.9999999724999924
 21
155.542189649206648
 31
0.0
  0
LINE
  5
151
100
AcDbEntity
100
AcDbLine
  8
0
 62
7
420
0
370
-1
  6
BYLAYER
 10
20.9999999724999924
 20
155.542189649206648
 30
0.0
 11
20.9999999724999924
 21
155.6803896458284271
 31
0.0
  0
LINE
  5
152
100
AcDbEntity
100
AcDbLine
  8
0
 62
7
420
0
370
-1
  6
BYLAYER
 10
20.9999999724999924
 20
155.6803896458284271
 30
0.0
 11
20.9999999724999924
 21
155.8203396424074185
 31
0.0
  0
LINE
  5
153
100
AcDbEntity
100
AcDbLine
  8
0
 62
7
420
0
370
-1
  6
BYLAYER
 10
20.9999999724999924
 20
55.8203420868518663
 30
0.0
 11
20.9999999724999924
 21
55.9602920834308719
 31
0.0
  0
LINE
  5
154
100
AcDbEntity
100
AcDbLine
  8
0
 62
7
420
0
370
-1
  6
BYLAYER
 10
20.9999999724999924
 20
55.9602920834308719
 30
0.0
 11
20.9999999724999924
 21
56.0984920800526368
 31
0.0
  0
LINE
  5
155
100
AcDbEntity
100
AcDbLine
  8
0
 62
7
420
0
370
-1
  6
BYLAYER
 10
20.9999999724999924
 20
56.0984920800526368
 30
0.0
 11
20.9999999724999924
 21
56.2331920767599627
 31
0.0
  0
LINE
  5
156
100
AcDbEntity
100
AcDbLine
  8
0
 62
7
420
0
370
-1
  6
BYLAYER
 10
20.9999999724999924
 20
56.2331920767599627
 30
0.0
 11
20.9999999724999924
 21
56.3626920735944168
 31
0.0
  0
LINE
  5
157
100
AcDbEntity
100
AcDbLine
  8
0
 62
7
420
0
370
-1
  6
BYLAYER
 10
20.9999999724999924
 20
56.3626920735944168
 30
0.0
 11
20.9999999724999924
 21
56.4853920705950827
 31
0.0
  0
LINE
  5
158
100
AcDbEntity
100
AcDbLine
  8
0
 62
7
420
0
370
-1
  6
BYLAYER
 10
20.9999999724999924
 20
56.4853920705950827
 30
0.0
 11
20.9999999724999924
 21
56.5996920678010866
 31
0.0
  0
LINE
  5
159
100
AcDbEntity
100
AcDbLine
  8
0
 62
7
420
0
370
-1
  6
BYLAYER
 10
20.9999999724999924
 20
56.5996920678010866
 30
0.0
 11
20.9999999724999924
 21
56.704242065245424
 31
0.0
  0
LINE
  5
15A
100
AcDbEntity
100
AcDbLine
  8
0
 62
7
420
0
370
-1
  6
BYLAYER
 10
20.9999999724999924
 20
56.704242065245424
 30
0.0
 11
20.9999999724999924
 21
56.7976420629623107
 31
0.0
  0
LINE
  5
15B
100
AcDbEntity
100
AcDbLine
  8
0
 62
7
420
0
370
-1
  6
BYLAYER
 10
20.9999999724999924
 20
56.7976420629623107
 30
0.0
 11
20.9999999724999924
 21
56.8787420609798602
 31
0.0
  0
LINE
  5
15C
100
AcDbEntity
100
AcDbLine
  8
0
 62
7
420
0
370
-1
  6
BYLAYER
 10
20.9999999724999924
 20
56.8787420609798602
 30
0.0
 11
20.9999999724999924
 21
56.9465420593225389
 31
0.0
  0
LINE
  5
15D
100
AcDbEntity
100
AcDbLine
  8
0
 62
7
420
0
370
-1
  6
BYLAYER
 10
20.9999999724999924
 20
56.9465420593225389
 30
0.0
 11
20.9999999724999924
 21
57.0001920580110806
 31
0.0
  0
LINE
  5
15E
100
AcDbEntity
100
AcDbLine
  8
0
 62
7
420
0
370
-1
  6
BYLAYER
 10
20.9999999724999924
 20
57.0001920580110806
 30
0.0
 11
20.9999999724999924
 21
57.038992057062643
 31
0.0
  0
LINE
  5
15F
100
AcDbEntity
100
AcDbLine
  8
0
 62
7
420
0
370
-1
  6
BYLAYER
 10
20.9999999724999924
 20
57.038992057062643
 30
0.0
 11
20.9999999724999924
 21
57.0624920564882103
 31
0.0
  0
LINE
  5
160
100
AcDbEntity
100
AcDbLine
  8
0
 62
7
420
0
370
-1
  6
BYLAYER
 10
20.9999999724999924
 20
57.0624920564882103
 30
0.0
 11
20.9999999724999924
 21
57.0703420562963117
 31
0.0
  0
DIMENSION
  5
161
100
AcDbEntity
  8
COTAS
 62
1
420
16711680
370
-1
  6
BYLAYER
100
AcDbDimension
 10
26.2499999908333201
 20
37.8203408646296282
 30
0.0
 11
24.6805555280555353
 21
39.6953408646296282
 31
0.0
 70
0
 71
8
 72
2
 41
1.0
 42
0.0
  1
3mm
  3
Standard
100
AcDbAlignedDimension
 13
19.5000000091666514
 23
43.3203423924074542
 33
0.0
 14
20.9999999724999817
 24
43.32034239240744
 34
0.0
 50
0.0
100
AcDbRotatedDimension
1001
ACAD
1000
DSTYLE
1002
{
1070
144
1040
1
1002
}
  0
ARC
  5
162
100
AcDbEntity
  8
0
 62
7
420
0
370
-1
  6
BYLAYER
100
AcDbCircle
 10
60.2499999908333308
 20
55.8203420868518947
 30
0.0
 40
12.499999694444492
100
AcDbArc
 50
180.0
 51
0.0
  0
LINE
  5
163
100
AcDbEntity
100
AcDbLine
  8
0
 62
7
420
0
370
-1
  6
BYLAYER
 10
47.7500002963888903
 20
55.8203420868518805
 30
0.0
 11
47.7500002963888903
 21
155.8203396424074185
 31
0.0
  0
ARC
  5
164
100
AcDbEntity
  8
0
 62
7
420
0
370
-1
  6
BYLAYER
100
AcDbCircle
 10
60.249999990833345
 20
155.8203396424074185
 30
0.0
 40
12.4999996944444405
100
AcDbArc
 50
0.0
 51
180.0
  0
LINE
  5
165
100
AcDbEntity
100
AcDbLine
  8
0
 62
7
420
0
370
-1
  6
BYLAYER
 10
72.7499996852777855
 20
55.8203420868518805
 30
0.0
 11
72.7499996852777855
 21
155.8203396424074185
 31
0.0
  0
CIRCLE
  5
166
100
AcDbEntity
100
AcDbCircle
  8
0
 62
7
420
0
370
-1
  6
BYLAYER
 10
60.249999990833274
 20
155.8203396424073048
 30
0.0
 40
1.2499999694447848
  0
CIRCLE
  5
167
100
AcDbEntity
100
AcDbCircle
  8
0
 62
7
420
0
370
-1
  6
BYLAYER
 10
60.2499999908327055
 20
55.8203420868580906
 30
0.0
 40
1.2499999694471065
  0
DIMENSION
  5
168
100
AcDbEntity
  8
COTAS
 62
1
420
16711680
370
-1
  6
BYLAYER
100
AcDbDimension
 10
84.2499999908332882
 20
155.8203396424073333
 30
0.0
 11
82.3749999908333166
 21
105.8203408646296282
 31
0.0
 70
1
 71
8
 72
2
 41
1.0
 42
0.0
  1
200mm
  3
Standard
100
AcDbAlignedDimension
 13
60.2499999908332597
 23
155.8203396424073048
 33
0.0
 14
60.2499999908333237
 24
55.8203420868518947
 34
0.0
1001
ACAD
1000
DSTYLE
1002
{
1070
144
1040
1
1002
}
  0
DIMENSION
  5
169
100
AcDbEntity
  8
COTAS
 62
1
420
16711680
370
-1
  6
BYLAYER
100
AcDbDimension
 10
60.2499999908332597
 20
155.8203396424073048
 30
0.0
 11
58.3749999908332597
 21
147.4870063396291755
 31
0.0
 70
4
 71
8
 72
2
 41
1.0
 42
0.0
  1
2,5mm
  3
Standard
100
AcDbRadialDimension
 15
60.2499999908332597
 25
154.5703396729625183
 35
0.0
 40
0.0
1001
ACAD
1000
DSTYLE
1002
{
1070
144
1040
1
1002
}
  0
DIMENSION
  5
16A
100
AcDbEntity
  8
COTAS
 62
1
420
16711680
370
-1
  6
BYLAYER
100
AcDbDimension
 10
60.2111874782764147
 20
55.8714018626853459
 30
0.0
 11
58.401598066325775
 21
64.2191833101926335
 31
0.0
 70
4
 71
8
 72
2
 41
1.0
 42
0.0
  1
2,5mm
  3
Standard
100
AcDbRadialDimension
 15
60.2209904173614063
 25
57.121363392492249
 35
0.0
 40
0.0
1001
ACAD
1000
DSTYLE
1002
{
1070
144
1040
1
1002
}
  0
DIMENSION
  5
16B
100
AcDbEntity
  8
COTAS
 62
1
420
16711680
370
-1
  6
BYLAYER
100
AcDbDimension
 10
62.8283853034590862
 20
32.9296606631480984
 30
0.0
 11
60.2499999908333521
 21
34.8046606631480984
 31
0.0
 70
0
 71
8
 72
2
 41
1.0
 42
0.0
  1
50mm
  3
Standard
100
AcDbAlignedDimension
 13
47.7500002963888761
 23
55.8203420868518734
 33
0.0
 14
72.7499996852778281
 24
55.8203420868518947
 34
0.0
 50
0.0
100
AcDbRotatedDimension
1001
ACAD
1000
DSTYLE
1002
{
1070
144
1040
1
1002
}
  0
LINE
  5
16C
100
AcDbEntity
100
AcDbLine
  8
0
 62
7
420
0
370
-1
  6
BYLAYER
 10
20.9999999724999924
 20
43.3203423924074258
 30
0.0
 11
19.5000000091666621
 21
43.3203423924074258
 31
0.0
  0
LINE
  5
16D
100
AcDbEntity
100
AcDbLine
  8
0
 62
7
420
0
370
-1
  6
BYLAYER
 10
20.9999999724999924
 20
168.3203393368518732
 30
0.0
 11
19.5000000091666621
 21
168.3203393368518732
 31
0.0
  0
LINE
  5
16E
100
AcDbEntity
100
AcDbLine
  8
0
 62
7
420
0
370
-1
  6
BYLAYER
 10
19.5000000091666621
 20
43.3203423924074258
 30
0.0
 11
19.5000000091666621
 21
43.3988423904885252
 31
0.0
  0
LINE
  5
16F
100
AcDbEntity
100
AcDbLine
  8
0
 62
7
420
0
370
-1
  6
BYLAYER
 10
19.5000000091666621
 20
43.3988423904885252
 30
0.0
 11
19.5000000091666621
 21
43.6338423847440851
 31
0.0
  0
LINE
  5
170
100
AcDbEntity
100
AcDbLine
  8
0
 62
7
420
0
370
-1
  6
BYLAYER
 10
19.5000000091666621
 20
43.6338423847440851
 30
0.0
 11
19.5000000091666621
 21
44.0218423752596237
 31
0.0
  0
ARC
  5
171
100
AcDbEntity
  8
0
 62
7
420
0
370
-1
  6
BYLAYER
100
AcDbCircle
 10
130.6749254461030603
 20
147.7567161969734002
 30
0.0
 40
19.9999995111111986
100
AcDbArc
 50
0.0
 51
180.0
  0
LINE
  5
172
100
AcDbEntity
100
AcDbLine
  8
0
 62
7
420
0
370
-1
  6
BYLAYER
 10
150.6749249572141309
 20
147.7567161969732297
 30
0.0
 11
150.6749249572141878
 21
67.7567181525287481
 31
0.0
  0
LINE
  5
173
100
AcDbEntity
100
AcDbLine
  8
0
 62
7
420
16777215
370
-1
  6
BYLAYER
 10
150.6749249572141878
 20
67.7567181525287481
 30
0.0
 11
110.674925934991947
 21
67.7567181525288333
 31
0.0
  0
LINE
  5
174
100
AcDbEntity
100
AcDbLine
  8
0
 62
7
420
0
370
-1
  6
BYLAYER
 10
110.6749259349919612
 20
147.7567161969732297
 30
0.0
 11
110.674925934991947
 21
67.7567181525288333
 31
0.0
  0
CIRCLE
  5
175
100
AcDbEntity
100
AcDbCircle
  8
0
 62
7
420
0
370
-1
  6
BYLAYER
 10
130.6749254461024066
 20
147.7567161969699043
 30
0.0
 40
1.9999999511186897
  0
DIMENSION
  5
176
100
AcDbEntity
  8
COTAS
 62
1
420
16711680
370
-1
  6
BYLAYER
100
AcDbDimension
 10
150.0642871345152685
 20
54.2017877875334193
 30
0.0
 11
130.6749254461030603
 21
56.0767877875334193
 31
0.0
 70
0
 71
8
 72
2
 41
1.0
 42
0.0
  1
50mm
  3
Standard
100
AcDbAlignedDimension
 13
110.674925934991947
 23
67.7567181525288191
 33
0.0
 14
150.6749249572141878
 24
67.7567181525287765
 34
0.0
 50
0.0
100
AcDbRotatedDimension
1001
ACAD
1000
DSTYLE
1002
{
1070
144
1040
1
1002
}
  0
DIMENSION
  5
177
100
AcDbEntity
  8
COTAS
 62
1
420
16711680
370
-1
  6
BYLAYER
100
AcDbDimension
 10
130.6749254461024066
 20
147.7567161969699043
 30
0.0
 11
128.4562737973285778
 21
138.7511538370821711
 31
0.0
 70
4
 71
8
 72
2
 41
1.0
 42
0.0
  1
2,5mm
  3
Standard
100
AcDbRadialDimension
 15
130.5989611284100533
 25
145.7581594109584842
 35
0.0
 40
0.0
1001
ACAD
1000
DSTYLE
1002
{
1070
144
1040
1
1002
}
  0
DIMENSION
  5
178
100
AcDbEntity
  8
COTAS
 62
1
420
16711680
370
-1
  6
BYLAYER
100
AcDbDimension
 10
176.6307686399999568
 20
70.7599023475334121
 30
0.0
 11
174.7557686399999568
 21
107.7567171747510741
 31
0.0
 70
0
 71
8
 72
2
 41
1.0
 42
0.0
  1
100mm
  3
Standard
100
AcDbAlignedDimension
 13
150.6749249572141309
 23
147.7567161969734002
 33
0.0
 14
150.6749249572141878
 24
67.7567181525287481
 34
0.0
 50
90.0
100
AcDbRotatedDimension
1001
ACAD
1000
DSTYLE
1002
{
1070
144
1040
1
1002
}
  0
CIRCLE
  5
179
100
AcDbEntity
100
AcDbCircle
  8
0
 62
7
420
0
370
-1
  6
BYLAYER
 10
233.686552780799957
 20
114.4974015859334457
 30
0.0
 40
44.9999997466666741
  0
CIRCLE
  5
17A
100
AcDbEntity
100
AcDbCircle
  8
0
 62
7
420
0
370
-1
  6
BYLAYER
 10
233.6865527807983653
 20
114.4974015859345258
 30
0.0
 40
1.4999999915557991
  0
CIRCLE
  5
17B
100
AcDbEntity
100
AcDbCircle
  8
0
 62
7
420
0
370
-1
  6
BYLAYER
 10
211.1865529074666483
 20
114.4974015859332752
 30
0.0
 40
2.9999999831111843
  0
CIRCLE
  5
17C
100
AcDbEntity
100
AcDbCircle
  8
0
 62
7
420
0
370
-1
  6
BYLAYER
 10
256.186552654132413
 20
114.4974015859330052
 30
0.0
 40
2.9999999831116182
  0
DIMENSION
  5
17D
100
AcDbEntity
  8
COTAS
 62
1
420
16711680
370
-1
  6
BYLAYER
100
AcDbDimension
 10
211.1865529074666483
 20
114.4974015859332752
 30
0.0
 11
217.2330832132359717
 21
108.1607915429667202
 31
0.0
 70
4
 71
8
 72
2
 41
1.0
 42
0.0
  1
5mm
  3
Standard
100
AcDbRadialDimension
 15
212.7449667737793391
 25
111.933937890081225
 35
0.0
 40
0.0
1001
ACAD
1000
DSTYLE
1002
{
1070
144
1040
1
1002
}
  0
DIMENSION
  5
17E
100
AcDbEntity
  8
COTAS
 62
1
420
16711680
370
-1
  6
BYLAYER
100
AcDbDimension
 10
256.186552654132413
 20
114.4974015859330052
 30
0.0
 11
263.445828477951693
 21
109.5967822282465107
 31
0.0
 70
4
 71
8
 72
2
 41
1.0
 42
0.0
  1
5mm
  3
Standard
100
AcDbRadialDimension
 15
258.2560207456543822
 25
112.3254665692158483
 35
0.0
 40
0.0
1001
ACAD
1000
DSTYLE
1002
{
1070
144
1040
1
1002
}
  0
DIMENSION
  5
17F
100
AcDbEntity
  8
COTAS
 62
1
420
16711680
370
-1
  6
BYLAYER
100
AcDbDimension
 10
233.6865527807983653
 20
114.4974015859345258
 30
0.0
 11
240.0046914680959844
 21
108.3924560911552817
 31
0.0
 70
4
 71
8
 72
2
 41
1.0
 42
0.0
  1
2,5mm
  3
Standard
100
AcDbRadialDimension
 15
234.5179624346227456
 25
113.2488992983134608
 35
0.0
 40
0.0
1001
ACAD
1000
DSTYLE
1002
{
1070
144
1040
1
1002
}
  0
DIMENSION
  5
180
100
AcDbEntity
  8
COTAS
 62
1
420
16711680
370
-1
  6
BYLAYER
100
AcDbDimension
 10
233.686552780799957
 20
114.4974015859334457
 30
0.0
 11
227.6640188075982962
 21
136.2573350380750696
 31
0.0
 70
4
 71
8
 72
2
 41
1.0
 42
0.0
  1
75mm
  3
Standard
100
AcDbRadialDimension
 15
218.1229100918465065
 25
156.7202982588357827
 35
0.0
 40
0.0
1001
ACAD
1000
DSTYLE
1002
{
1070
144
1040
1
1002
}
  0
MTEXT
  5
181
100
AcDbEntity
100
AcDbMText
  8
0
 62
256
370
-1
  6
BYLAYER
 10
119.5372965887999612
 20
34.190311153933493
 30
0.0
 40
1.0
 41
0.0
 71
1
 72
1
  1
\H3;JAIME VILLEGAS
  7
textstyle36
 50
0.0
 73
2
 44
1.0
  0
ENDSEC
  0
SECTION
  2
OBJECTS
  0
DICTIONARY
  5
C
100
AcDbDictionary
280
0
281
1
  3
ACAD_GROUP
350
D
  3
ACAD_LAYOUT
350
1A
  3
ACAD_MLINESTYLE
350
17
  3
ACAD_PLOTSETTINGS
350
19
  3
ACAD_PLOTSTYLENAME
350
E
  3
AcDbVariableDictionary
350
182
  3
QCAD_OBJECTS
350
183
  0
DICTIONARY
  5
D
100
AcDbDictionary
280
0
281
1
  0
ACDBDICTIONARYWDFLT
  5
E
100
AcDbDictionary
281
1
  3
Normal
350
F
100
AcDbDictionaryWithDefault
340
F
  0
ACDBPLACEHOLDER
  5
F
  0
DICTIONARY
  5
17
100
AcDbDictionary
280
0
281
1
  3
Standard
350
18
  0
MLINESTYLE
  5
18
100
AcDbMlineStyle
  2
STANDARD
 70
0
  3

 62
256
 51
90.0
 52
90.0
 71
2
 49
0.5
 62
256
  6
BYLAYER
 49
-0.5
 62
256
  6
BYLAYER
  0
DICTIONARY
  5
19
100
AcDbDictionary
280
0
281
1
  0
DICTIONARY
  5
1A
100
AcDbDictionary
281
1
  3
Layout1
350
1E
  3
Layout2
350
26
  3
Model
350
22
  0
LAYOUT
  5
1E
100
AcDbPlotSettings
  1

  2
none_device
  4

  6

 40
0.0
 41
0.0
 42
0.0
 43
0.0
 44
0.0
 45
0.0
 46
0.0
 47
0.0
 48
0.0
 49
0.0
140
0.0
141
0.0
142
1.0
143
1.0
 70
688
 72
0
 73
0
 74
5
  7

 75
16
147
1.0
148
0.0
149
0.0
100
AcDbLayout
  1
Layout1
 70
1
 71
1
 10
0.0
 20
0.0
 11
420.0
 21
297.0
 12
0.0
 22
0.0
 32
0.0
 14
100000000000000000000.0
 24
100000000000000000000.0
 34
100000000000000000000.0
 15
-100000000000000000000.0
 25
-100000000000000000000.0
 35
-100000000000000000000.0
146
0.0
 13
0.0
 23
0.0
 33
0.0
 16
1.0
 26
0.0
 36
0.0
 17
0.0
 27
1.0
 37
0.0
 76
0
330
1B
  0
LAYOUT
  5
22
100
AcDbPlotSettings
  1

  2
none_device
  4

  6

 40
0.0
 41
0.0
 42
0.0
 43
0.0
 44
0.0
 45
0.0
 46
0.0
 47
0.0
 48
0.0
 49
0.0
140
0.0
141
0.0
142
1.0
143
1.0
 70
1712
 72
0
 73
0
 74
0
  7

 75
0
147
1.0
148
0.0
149
0.0
100
AcDbLayout
  1
Model
 70
1
 71
0
 10
0.0
 20
0.0
 11
12.0
 21
9.0
 12
0.0
 22
0.0
 32
0.0
 14
0.0
 24
0.0
 34
0.0
 15
0.0
 25
0.0
 35
0.0
146
0.0
 13
0.0
 23
0.0
 33
0.0
 16
1.0
 26
0.0
 36
0.0
 17
0.0
 27
1.0
 37
0.0
 76
0
330
1F
  0
LAYOUT
  5
26
100
AcDbPlotSettings
  1

  2
none_device
  4

  6

 40
0.0
 41
0.0
 42
0.0
 43
0.0
 44
0.0
 45
0.0
 46
0.0
 47
0.0
 48
0.0
 49
0.0
140
0.0
141
0.0
142
1.0
143
1.0
 70
688
 72
0
 73
0
 74
5
  7

 75
16
147
1.0
148
0.0
149
0.0
100
AcDbLayout
  1
Layout2
 70
1
 71
2
 10
0.0
 20
0.0
 11
12.0
 21
9.0
 12
0.0
 22
0.0
 32
0.0
 14
0.0
 24
0.0
 34
0.0
 15
0.0
 25
0.0
 35
0.0
146
0.0
 13
0.0
 23
0.0
 33
0.0
 16
1.0
 26
0.0
 36
0.0
 17
0.0
 27
1.0
 37
0.0
 76
0
330
23
  0
DICTIONARY
  5
182
100
AcDbDictionary
281
1
  3
DIMASSOC
350
185
  3
HIDETEXT
350
184
  0
DICTIONARYVAR
  5
184
100
DictionaryVariables
280
0
  1
2
  0
DICTIONARYVAR
  5
185
100
DictionaryVariables
280
0
  1
1
  0
DICTIONARY
  5
183
100
AcDbDictionary
281
1
  3
Grid/DisplayGrid00
350
186
  3
Grid/DisplayGrid01
350
187
  3
Grid/DisplayGrid02
350
188
  3
Grid/DisplayGrid03
350
189
  3
Grid/GridSpacingX00
350
18A
  3
Grid/GridSpacingX01
350
18B
  3
Grid/GridSpacingX02
350
18C
  3
Grid/GridSpacingX03
350
18D
  3
Grid/GridSpacingY00
350
18E
  3
Grid/GridSpacingY01
350
18F
  3
Grid/GridSpacingY02
350
190
  3
Grid/GridSpacingY03
350
191
  3
Grid/IsometricGrid00
350
192
  3
Grid/IsometricGrid01
350
193
  3
Grid/IsometricGrid02
350
194
  3
Grid/IsometricGrid03
350
195
  3
Grid/IsometricProjection00
350
196
  3
Grid/IsometricProjection01
350
197
  3
Grid/IsometricProjection02
350
198
  3
Grid/IsometricProjection03
350
199
  3
Grid/MetaGridSpacingX00
350
19A
  3
Grid/MetaGridSpacingX01
350
19B
  3
Grid/MetaGridSpacingX02
350
19C
  3
Grid/MetaGridSpacingX03
350
19D
  3
Grid/MetaGridSpacingY00
350
19E
  3
Grid/MetaGridSpacingY01
350
19F
  3
Grid/MetaGridSpacingY02
350
1A0
  3
Grid/MetaGridSpacingY03
350
1A1
  3
MultiPageSettings/Columns
350
1A2
  3
MultiPageSettings/GlueMarginsBottom
350
1A3
  3
MultiPageSettings/GlueMarginsLeft
350
1A4
  3
MultiPageSettings/GlueMarginsRight
350
1A5
  3
MultiPageSettings/GlueMarginsTop
350
1A6
  3
MultiPageSettings/PrintCropMarks
350
1A7
  3
MultiPageSettings/Rows
350
1A8
  3
PageSettings/OffsetX
350
1A9
  3
PageSettings/OffsetY
350
1AA
  3
PageSettings/PageOrientation
350
1AB
  3
PageSettings/PaperHeight
350
1AC
  3
PageSettings/PaperSizeName
350
1AD
  3
PageSettings/PaperWidth
350
1AE
  3
PageSettings/Scale
350
1AF
  3
PageSettings/ShowPaperBorders
350
1B0
  3
UnitSettings/PaperUnit
350
1B1
  0
XRECORD
  5
186
330
183
100
AcDbXrecord
280
1
290
1
  0
XRECORD
  5
187
330
183
100
AcDbXrecord
280
1
290
1
  0
XRECORD
  5
188
330
183
100
AcDbXrecord
280
1
290
1
  0
XRECORD
  5
189
330
183
100
AcDbXrecord
280
1
290
1
  0
XRECORD
  5
18A
330
183
100
AcDbXrecord
280
1
1000
auto
  0
XRECORD
  5
18B
330
183
100
AcDbXrecord
280
1
1000
auto
  0
XRECORD
  5
18C
330
183
100
AcDbXrecord
280
1
1000
auto
  0
XRECORD
  5
18D
330
183
100
AcDbXrecord
280
1
1000
auto
  0
XRECORD
  5
18E
330
183
100
AcDbXrecord
280
1
1000
auto
  0
XRECORD
  5
18F
330
183
100
AcDbXrecord
280
1
1000
auto
  0
XRECORD
  5
190
330
183
100
AcDbXrecord
280
1
1000
auto
  0
XRECORD
  5
191
330
183
100
AcDbXrecord
280
1
1000
auto
  0
XRECORD
  5
192
330
183
100
AcDbXrecord
280
1
290
0
  0
XRECORD
  5
193
330
183
100
AcDbXrecord
280
1
290
0
  0
XRECORD
  5
194
330
183
100
AcDbXrecord
280
1
290
0
  0
XRECORD
  5
195
330
183
100
AcDbXrecord
280
1
290
0
  0
XRECORD
  5
196
330
183
100
AcDbXrecord
280
1
 90
0
  0
XRECORD
  5
197
330
183
100
AcDbXrecord
280
1
 90
0
  0
XRECORD
  5
198
330
183
100
AcDbXrecord
280
1
 90
0
  0
XRECORD
  5
199
330
183
100
AcDbXrecord
280
1
 90
0
  0
XRECORD
  5
19A
330
183
100
AcDbXrecord
280
1
1000
auto
  0
XRECORD
  5
19B
330
183
100
AcDbXrecord
280
1
1000
auto
  0
XRECORD
  5
19C
330
183
100
AcDbXrecord
280
1
1000
auto
  0
XRECORD
  5
19D
330
183
100
AcDbXrecord
280
1
1000
auto
  0
XRECORD
  5
19E
330
183
100
AcDbXrecord
280
1
1000
auto
  0
XRECORD
  5
19F
330
183
100
AcDbXrecord
280
1
1000
auto
  0
XRECORD
  5
1A0
330
183
100
AcDbXrecord
280
1
1000
auto
  0
XRECORD
  5
1A1
330
183
100
AcDbXrecord
280
1
1000
auto
  0
XRECORD
  5
1A2
330
183
100
AcDbXrecord
280
1
 90
1
  0
XRECORD
  5
1A3
330
183
100
AcDbXrecord
280
1
 40
10.0
  0
XRECORD
  5
1A4
330
183
100
AcDbXrecord
280
1
 40
10.0
  0
XRECORD
  5
1A5
330
183
100
AcDbXrecord
280
1
 40
10.0
  0
XRECORD
  5
1A6
330
183
100
AcDbXrecord
280
1
 40
10.0
  0
XRECORD
  5
1A7
330
183
100
AcDbXrecord
280
1
290
0
  0
XRECORD
  5
1A8
330
183
100
AcDbXrecord
280
1
 90
1
  0
XRECORD
  5
1A9
330
183
100
AcDbXrecord
280
1
 40
0.0
  0
XRECORD
  5
1AA
330
183
100
AcDbXrecord
280
1
 40
0.0
  0
XRECORD
  5
1AB
330
183
100
AcDbXrecord
280
1
1000
Landscape
  0
XRECORD
  5
1AC
330
183
100
AcDbXrecord
280
1
 40
297.0
  0
XRECORD
  5
1AD
330
183
100
AcDbXrecord
280
1
1000
ISO A4
  0
XRECORD
  5
1AE
330
183
100
AcDbXrecord
280
1
 40
210.0
  0
XRECORD
  5
1AF
330
183
100
AcDbXrecord
280
1
1000
1:1
  0
XRECORD
  5
1B0
330
183
100
AcDbXrecord
280
1
290
1
  0
XRECORD
  5
1B1
330
183
100
AcDbXrecord
280
1
 90
4
  0
ENDSEC
  0
EOF
